<svg version="1.1" id="Layer_1" xmlns="http://www.w3.org/2000/svg" xmlns:xlink="http://www.w3.org/1999/xlink" x="0px" y="0px"
	 width="100%" viewBox="0 0 1024 1024" enable-background="new 0 0 1024 1024" xml:space="preserve">
<path fill="#000000" opacity="1.000000" stroke="none" 
	d="
M459.484894,597.926941 
	C463.054260,600.541016 465.672791,599.753113 468.431854,596.866089 
	C478.100128,586.749329 487.943207,576.799500 497.741394,566.807251 
	C501.269135,563.209717 505.245941,563.956482 507.408447,568.540100 
	C508.511414,570.877930 506.529846,571.899719 505.358490,573.102295 
	C496.755829,581.934509 488.075256,590.690857 479.429352,599.481018 
	C478.282806,600.646606 477.193329,601.868408 475.898346,603.256226 
	C480.044159,606.306824 483.395660,606.466431 486.979065,602.679993 
	C494.078491,595.178284 501.577271,588.053711 508.651917,580.529663 
	C511.750793,577.233948 513.717407,576.987915 516.956909,580.575684 
	C523.759888,588.110107 531.066162,595.193359 538.236694,602.391296 
	C542.985779,607.158508 543.040833,607.103699 549.840088,603.904663 
	C549.449951,601.780884 547.693787,600.629822 546.343872,599.257141 
	C537.815979,590.585327 529.294922,581.904297 520.618530,573.382202 
	C518.001038,570.811340 517.340332,569.037170 520.331543,566.066040 
	C523.226379,563.190613 524.897949,564.036194 527.249390,566.443115 
	C537.263489,576.693604 547.525940,586.705017 557.399109,597.087646 
	C560.971680,600.844604 563.867065,601.152893 567.313538,597.363708 
	C567.730591,595.603821 566.457397,594.609131 565.437622,593.580017 
	C553.127502,581.157349 540.743530,568.807312 528.498840,556.320618 
	C525.576050,553.340088 523.208191,552.825378 520.343079,556.297485 
	C518.145874,558.960205 515.594421,561.330627 513.370483,563.653503 
	C510.543335,562.906128 509.331573,560.979736 507.830688,559.504272 
	C500.226227,552.028320 492.694519,544.478271 485.149323,536.942200 
	C480.599304,532.397583 479.788147,532.448364 475.143555,537.195801 
	C466.173065,546.364929 457.156494,555.489014 448.149933,564.622864 
	C447.346558,565.437561 446.638458,566.443054 445.235168,566.439514 
	C443.274628,565.483337 443.906036,563.634827 443.909668,562.080627 
	C443.946411,546.417603 444.033386,530.754639 444.096771,515.091675 
	C444.143585,503.526855 447.533752,499.515778 458.670624,496.334839 
	C479.632416,490.347717 500.488953,483.993011 521.418213,477.890533 
	C528.443237,475.842194 535.519836,473.942200 542.637939,472.248169 
	C553.207703,469.732635 558.089600,476.309814 558.307068,486.071503 
	C558.376831,489.202423 556.090759,489.284973 554.029541,489.871429 
	C551.630920,490.553894 550.404846,489.238586 550.120972,487.244263 
	C549.302979,481.498077 545.598389,481.371887 541.311340,482.583252 
	C516.652588,489.551025 491.698120,495.304016 466.690887,500.842010 
	C463.934479,501.452393 461.116486,501.792145 458.370758,502.442047 
	C454.744965,503.300262 451.748260,505.095734 451.390076,509.215820 
	C451.037933,513.266724 453.861664,515.093994 457.131348,516.422119 
	C459.972565,517.576172 462.944885,517.690735 465.966888,517.689026 
	C498.961578,517.670654 531.956238,517.669189 564.950928,517.705261 
	C579.494324,517.721191 587.624634,529.013367 583.170105,542.807434 
	C582.488586,544.917725 580.923889,545.037842 579.243164,545.044922 
	C574.077637,545.066650 568.911438,544.977173 563.746155,545.018982 
	C554.965881,545.090088 549.201233,550.339233 549.336060,558.058716 
	C549.460693,565.198669 555.760864,570.629333 564.067749,570.579712 
	C568.393982,570.553833 572.728638,570.379517 577.041199,570.039856 
	C581.507324,569.688049 583.460449,571.389526 583.311951,576.018982 
	C583.185730,579.953796 582.778931,583.957947 583.959595,589.211426 
	C615.252625,570.126648 636.258545,544.034424 645.465332,509.157043 
	C655.148315,472.475555 651.028564,436.994324 632.120056,404.009186 
	C613.386536,371.329590 585.543091,349.421814 548.087708,338.678253 
	C554.613953,332.981659 557.792664,326.105499 562.463379,320.316498 
	C565.007935,317.162689 568.044189,317.775848 570.916382,319.727020 
	C573.926147,321.771637 575.604492,324.383392 573.785339,328.229645 
	C569.905151,336.433838 571.025085,339.321564 579.649414,342.048676 
	C596.669373,347.430634 613.343323,353.607208 629.165405,361.967377 
	C633.422791,364.216919 634.881531,362.686768 634.777161,355.907379 
	C637.222229,357.061157 639.073669,358.528229 640.669556,360.385803 
	C654.320862,376.275238 666.011719,393.344543 673.178345,413.248505 
	C681.889160,437.441284 685.059082,462.234802 682.508728,487.866730 
	C679.803101,515.059570 671.575073,540.380554 656.408752,563.038757 
	C627.610718,606.062561 587.524719,632.703613 536.006653,638.720215 
	C470.758392,646.340332 416.819702,624.157349 376.510284,571.461670 
	C359.357147,549.037720 349.139282,523.309143 345.208069,495.574707 
	C339.476227,455.137085 346.891083,416.987518 369.104828,382.255371 
	C372.579681,376.822266 376.892273,371.922943 380.847717,366.800140 
	C382.428192,364.753235 384.257629,363.614166 386.803711,365.400360 
	C389.273163,367.132782 391.284790,365.391083 393.244324,364.298950 
	C408.425995,355.837646 424.414124,349.180511 440.797455,343.532349 
	C447.032257,341.382935 453.693115,340.470306 460.158447,338.988007 
	C461.943024,338.578918 463.783508,338.315094 465.491638,337.692047 
	C468.723816,336.513153 470.608429,334.787598 468.308075,330.987091 
	C467.363922,329.427216 466.154480,327.614746 466.808960,324.601898 
	C470.539398,329.482056 473.884186,333.857727 477.163177,338.147308 
	C412.677277,362.378754 376.300842,407.689087 376.914581,477.284302 
	C377.342896,525.850220 400.402100,563.651917 443.988953,589.979187 
	C441.577576,579.011292 449.058502,574.563538 454.431854,568.970154 
	C461.587799,561.521118 469.101105,554.408447 476.101166,546.819458 
	C479.493591,543.141724 481.791077,543.257141 484.711456,547.089539 
	C486.822754,549.860352 489.234924,552.460205 491.819763,554.796753 
	C494.878296,557.561462 494.162537,559.686646 491.589355,562.258057 
	C481.453735,572.386597 471.395844,582.593750 461.401428,592.861572 
	C460.183960,594.112366 457.706390,595.115723 459.484894,597.926941 
M508.490601,595.018799 
	C504.774384,598.888367 501.058197,602.757996 497.342010,606.627563 
	C497.562073,607.135620 497.782135,607.643616 498.002197,608.151672 
	C508.209473,609.372742 518.441528,609.038452 530.126221,608.375732 
	C525.014221,603.075073 520.695557,599.006836 516.881958,594.510254 
	C513.942566,591.044434 511.611725,591.127808 508.490601,595.018799 
z"/>
<path fill="#000000" opacity="1.000000" stroke="none" 
	d="
M422.447021,431.565735 
	C425.625763,425.252136 429.234161,419.602783 433.564056,414.551453 
	C436.799469,410.776978 437.060577,407.384491 434.555695,403.338715 
	C433.180664,401.117859 432.084351,398.724457 430.561340,395.838348 
	C434.871887,395.830292 437.453369,398.390503 440.243805,399.985596 
	C443.700165,401.961426 446.057922,401.620300 449.121552,399.085022 
	C464.804016,386.107178 482.798676,378.439545 503.153595,376.651093 
	C506.604034,376.347931 508.616913,374.883026 509.571411,371.512482 
	C510.361053,368.723969 510.845276,365.684326 513.381470,363.384216 
	C515.951416,365.913788 516.135742,369.234314 517.177002,372.079926 
	C518.186035,374.837372 519.803223,376.109985 522.580261,376.366699 
	C543.806946,378.328827 562.410400,386.593292 578.823181,399.988159 
	C580.817932,401.616119 582.556152,401.837250 584.679810,400.527252 
	C586.379944,399.478607 588.115906,398.473572 589.903931,397.586304 
	C591.608582,396.740326 592.931152,394.911438 595.546936,395.394165 
	C595.633728,399.338501 592.660828,401.941101 591.246094,405.103851 
	C589.920837,408.066681 589.854187,410.171875 591.985291,412.771484 
	C604.174133,427.640350 612.195679,444.427612 614.559387,463.658112 
	C615.067932,467.795715 616.910034,470.099548 621.096985,471.087952 
	C624.148621,471.808380 627.608093,472.136719 630.714966,475.288391 
	C626.539856,476.901642 623.073425,478.274170 619.581970,479.579529 
	C616.826477,480.609772 615.435242,482.328064 615.126282,485.465607 
	C613.414734,502.850311 607.685974,518.848999 597.908691,533.352722 
	C596.835266,534.945068 596.118652,536.960876 593.906555,537.616211 
	C592.044983,536.188721 593.144104,534.207886 592.928833,532.523621 
	C592.697144,530.711548 593.391907,528.446594 592.539856,527.104980 
	C588.373291,520.544739 592.111328,515.341064 594.664001,509.639008 
	C597.935364,502.331970 599.775024,494.550842 600.776123,486.569183 
	C601.335693,482.107880 600.032593,479.210602 595.491272,477.852722 
	C593.836975,477.358063 592.011841,476.692505 590.819458,475.068176 
	C591.207520,472.302643 593.754639,472.609070 595.426270,472.119720 
	C600.014893,470.776428 601.375916,467.859558 600.595764,463.411102 
	C597.899109,448.033691 592.050842,434.106018 582.047058,421.981323 
	C580.146973,419.678314 578.406799,418.936127 575.659607,420.325745 
	C573.486145,421.425171 571.406677,422.994659 568.637390,422.770233 
	C567.267090,420.203033 569.257263,418.272461 570.018005,416.277649 
	C571.203125,413.170227 570.787659,410.878845 568.160522,408.801270 
	C555.594177,398.863464 541.346619,392.868561 525.569763,390.330170 
	C520.699402,389.546600 517.524109,391.123199 516.307495,396.118805 
	C515.961182,397.540924 515.463379,398.991943 513.895935,400.126251 
	C510.881256,399.265594 510.369476,396.299652 509.556122,394.047211 
	C508.422485,390.907745 506.553253,389.881226 503.504852,390.322632 
	C487.596100,392.626190 472.824219,397.711914 459.960938,407.714600 
	C456.358734,410.515747 454.407623,413.262054 457.470673,417.650787 
	C458.383759,418.959045 458.929047,420.635651 458.693420,422.674347 
	C455.703125,423.330017 453.333099,421.515045 450.916412,420.398102 
	C448.301270,419.189484 446.641022,419.750549 444.924744,421.922638 
	C435.327515,434.068817 429.201813,447.765228 426.490387,462.972473 
	C425.374512,469.230896 426.066315,470.193695 432.235687,472.484955 
	C433.481049,472.947510 434.844604,473.163544 435.589050,474.852966 
	C434.348053,477.659760 431.193878,477.859375 428.834930,479.061218 
	C426.009064,480.501007 425.225861,482.281952 425.678162,485.472534 
	C427.137909,495.769958 430.281128,505.453400 434.203278,515.084595 
	C437.115967,522.237000 434.445374,530.077515 435.183441,538.090332 
	C431.387878,537.549316 430.253021,535.147461 428.945282,533.237793 
	C419.045563,518.781677 413.487427,502.699615 411.792664,485.334167 
	C411.462219,481.948242 410.382568,480.235687 407.166595,479.367004 
	C403.513397,478.380219 399.967896,476.994751 395.934875,475.633911 
	C398.611115,471.956268 402.460510,472.397125 405.565979,471.456451 
	C409.460999,470.276642 411.715790,468.660980 412.214203,464.118958 
	C413.458466,452.780151 416.931549,442.015411 422.447021,431.565735 
z"/>
<path fill="#000000" opacity="1.000000" stroke="none" 
	d="
M544.783569,254.201385 
	C560.715393,270.414703 563.083374,292.768799 550.884338,313.236420 
	C541.217896,329.454803 529.430786,344.111786 516.578430,357.916046 
	C515.030823,359.578278 513.399048,361.055817 511.143585,358.771545 
	C494.656158,342.073273 479.592957,324.154938 470.896606,302.152588 
	C463.048859,282.297424 470.000885,261.803589 486.840698,249.973267 
	C503.467590,238.292496 526.163147,239.124329 542.244202,252.009949 
	C543.024048,252.634811 543.765930,253.306931 544.783569,254.201385 
M513.493958,267.336395 
	C511.540405,267.716705 509.528961,267.913422 507.643097,268.508301 
	C498.238373,271.475098 493.267517,279.427917 494.217896,289.791382 
	C494.986786,298.175751 502.358765,305.648407 510.830353,306.630768 
	C520.241333,307.722046 528.857727,302.356232 531.966919,293.468018 
	C536.277527,281.145355 528.965759,270.339081 513.493958,267.336395 
z"/>
<path fill="#000000" opacity="1.000000" stroke="none" 
	d="
M532.367310,737.270874 
	C530.821594,742.435974 529.291565,747.189941 527.907043,751.985962 
	C527.190918,754.466431 525.715881,755.513611 523.163574,755.354065 
	C520.729370,755.201904 517.961670,755.918640 516.948669,752.629333 
	C510.141754,730.527344 502.420166,708.711487 496.248260,686.411621 
	C496.172852,686.139221 496.386139,685.786926 496.467651,685.472656 
	C503.831635,683.248901 504.541565,683.647156 506.692413,690.686646 
	C511.839233,707.531738 517.031250,724.363037 522.612976,742.527710 
	C528.238708,723.918030 533.530701,706.604126 538.666626,689.244141 
	C539.582336,686.148987 540.827820,684.410522 544.439514,684.478271 
	C547.529297,684.536316 548.676147,685.676819 549.554993,688.565979 
	C554.637512,705.274597 559.971375,721.906799 565.226013,738.563049 
	C565.415405,739.163574 565.665222,739.745117 566.369629,741.621521 
	C569.963440,730.103638 573.243042,719.747620 576.417786,709.359558 
	C578.313416,703.156921 580.038818,696.902405 581.851379,690.674316 
	C583.718018,684.260132 584.634277,683.767273 591.971008,685.559021 
	C590.874695,692.917786 588.060303,699.845093 585.931824,706.918823 
	C581.569275,721.417725 576.830200,735.803040 572.330078,750.261169 
	C571.370178,753.345154 570.322998,755.515625 566.307617,755.457458 
	C562.386536,755.400635 561.252075,753.431213 560.283936,750.249512 
	C555.826843,735.603088 551.211548,721.004700 546.627075,706.397156 
	C545.994507,704.381775 545.216980,702.411926 544.082886,699.233765 
	C539.963562,712.556030 536.203491,724.716614 532.367310,737.270874 
z"/>
<path fill="#000000" opacity="1.000000" stroke="none" 
	d="
M436.048889,737.000000 
	C436.031738,727.172302 436.047058,717.844299 435.979736,708.516968 
	C435.955505,705.163086 435.919373,702.228149 440.620453,701.984985 
	C447.390198,701.634827 448.551544,702.127014 449.674652,707.913330 
	C455.945221,702.310059 462.965057,699.834778 471.195557,701.691772 
	C476.962891,702.992981 481.603973,705.982422 485.336182,710.483032 
	C493.552521,720.390747 493.474457,737.883972 485.181885,747.602295 
	C476.383148,757.913635 465.464966,758.722717 449.338501,749.810242 
	C449.338501,756.283752 449.183136,762.380920 449.396515,768.465149 
	C449.525574,772.145630 448.186798,773.384766 444.499542,773.389343 
	C436.032959,773.399963 436.045135,773.567444 436.055542,764.983276 
	C436.066681,755.822205 436.052124,746.661072 436.048889,737.000000 
M460.121216,713.237488 
	C453.638153,714.704956 450.116760,718.935120 449.304504,725.349854 
	C448.414581,732.377930 449.858856,738.707581 456.217834,742.867004 
	C462.890320,747.231445 472.315308,744.620239 476.023682,737.559692 
	C482.652283,724.939270 475.133514,712.752563 460.121216,713.237488 
z"/>
<path fill="#000000" opacity="1.000000" stroke="none" 
	d="
M463.090698,479.050110 
	C459.033844,477.914276 455.376617,476.862885 451.719391,475.811462 
	C451.632477,475.344055 451.545593,474.876648 451.458710,474.409241 
	C465.308990,470.701935 479.616577,468.685974 492.676941,464.410248 
	C484.436432,457.227478 480.591980,446.442963 473.601990,437.823944 
	C483.718872,442.160156 492.087067,448.962128 501.893555,454.535278 
	C506.955566,440.440491 508.472931,425.738342 513.658447,411.861877 
	C515.440979,420.072144 517.223450,428.282410 519.234131,437.543671 
	C515.785828,434.945343 516.605957,431.685547 514.751465,428.322968 
	C514.751465,438.906555 514.751465,448.342560 514.751465,458.032867 
	C519.513123,457.704956 519.889709,453.805298 521.886658,450.954376 
	C524.193115,452.851379 526.348816,452.334778 528.815369,450.695557 
	C534.915649,446.641418 541.229431,442.907898 547.472778,439.070435 
	C548.409363,438.494720 549.321472,437.502808 551.033325,438.743591 
	C545.826721,447.134125 540.967957,455.748474 534.070862,462.982697 
	C533.648865,463.425293 532.795593,463.971344 532.373291,463.821289 
	C526.745667,461.821167 523.927185,465.990143 520.372559,468.927826 
	C515.354492,473.074982 508.932953,474.117401 502.933960,476.044983 
	C501.509583,476.502625 499.974854,476.707001 498.641479,477.343384 
	C487.159882,482.822968 475.494476,484.159576 463.090698,479.050110 
z"/>
<path fill="#000000" opacity="1.000000" stroke="none" 
	d="
M347.991791,684.738159 
	C350.989258,684.738953 353.510529,684.951233 355.983551,684.695801 
	C360.679291,684.210999 362.448730,685.905823 362.402252,690.825134 
	C362.358246,695.485291 361.118835,697.622253 356.186493,697.248352 
	C352.210663,696.946960 348.184235,697.365540 344.196136,697.158569 
	C340.510223,696.967285 339.246796,698.379944 339.286987,702.085693 
	C339.458588,717.914246 339.254883,733.747375 339.502594,749.573975 
	C339.569244,753.833435 338.569000,755.534058 333.990753,755.360962 
	C326.012054,755.059021 325.940826,755.319275 325.932922,749.487427 
	C325.912231,734.157349 325.751373,718.822876 326.074921,703.499268 
	C326.184814,698.294922 324.352356,696.650146 319.423737,697.097778 
	C315.954834,697.412903 312.426758,697.004822 308.932983,697.133911 
	C304.003906,697.315857 303.860687,694.197571 303.841858,690.532898 
	C303.822968,686.850525 304.442474,684.568054 309.002808,684.649109 
	C321.829620,684.877258 334.663025,684.734802 347.991791,684.738159 
z"/>
<path fill="#000000" opacity="1.000000" stroke="none" 
	d="
M683.134644,737.728577 
	C689.521912,748.926392 701.795898,751.505127 712.490295,744.281921 
	C713.947937,743.297302 715.113892,741.333862 717.175964,741.849670 
	C718.825745,742.262268 719.947205,743.746826 720.664429,745.238770 
	C721.525391,747.029602 719.874817,747.935974 718.846191,748.926453 
	C710.360657,757.096436 696.073303,758.549866 685.412903,752.363647 
	C675.305908,746.498840 670.530273,733.595886 673.781799,720.938904 
	C676.863770,708.941956 686.533691,701.240479 698.803894,701.010559 
	C713.564392,700.733887 725.586487,713.984680 724.362549,728.883301 
	C724.075500,732.377136 722.091370,732.361694 719.638062,732.356201 
	C708.641052,732.331421 697.643433,732.394287 686.647339,732.288818 
	C682.749756,732.251465 681.281799,733.582336 683.134644,737.728577 
M712.804260,725.681213 
	C716.307068,725.475647 715.658936,723.318665 715.028259,721.073975 
	C712.944275,713.656921 706.725037,708.794739 698.878601,708.507935 
	C692.272461,708.266357 684.840393,713.793518 682.693054,720.517639 
	C681.567322,724.042358 682.418762,725.840027 686.524475,725.763428 
	C694.995422,725.605469 703.471191,725.711426 712.804260,725.681213 
z"/>
<path fill="#000000" opacity="1.000000" stroke="none" 
	d="
M662.562622,732.704346 
	C667.150940,742.811646 663.766968,750.930725 653.787598,754.571350 
	C643.886475,758.183411 634.809021,755.665039 626.055542,750.819214 
	C623.343567,749.317871 623.634155,747.324402 624.945068,744.928345 
	C626.382080,742.302002 627.990173,742.364441 630.165527,743.942993 
	C635.774719,748.013184 642.164307,748.605591 648.773254,747.760132 
	C652.554138,747.276428 655.459961,745.442017 655.916931,741.303650 
	C656.367310,737.224609 653.767090,735.222290 650.294006,734.173828 
	C645.361694,732.684814 640.317017,731.542053 635.446289,729.881653 
	C628.175171,727.403076 624.862183,722.767639 625.242493,716.289551 
	C625.662903,709.128906 630.069885,703.620239 637.164124,702.090820 
	C645.039368,700.393005 652.701172,701.475647 660.055420,704.797363 
	C662.603516,705.948364 663.608276,707.357910 662.183350,710.230530 
	C660.842529,712.933411 659.444092,713.574524 656.767883,711.995972 
	C652.151917,709.273071 647.026001,708.811768 641.787048,709.203552 
	C637.466919,709.526672 634.290039,711.635742 633.745972,715.999817 
	C633.237976,720.075317 636.515381,721.778992 639.803284,722.815186 
	C644.556458,724.313110 649.451904,725.371033 654.172546,726.956421 
	C657.305359,728.008545 660.396545,729.419617 662.562622,732.704346 
z"/>
<path fill="#000000" opacity="1.000000" stroke="none" 
	d="
M572.065430,505.397186 
	C572.105530,507.165649 572.121765,508.497742 572.095154,509.828949 
	C572.044800,512.344727 570.631104,513.330139 568.237549,513.343872 
	C565.893555,513.357239 563.793213,513.159241 563.779419,510.064209 
	C563.757812,505.227203 561.167175,503.801605 556.640625,504.239838 
	C539.437134,505.905182 522.222290,507.456024 505.005493,508.979401 
	C492.088959,510.122284 479.164734,511.180939 466.239075,512.215881 
	C464.255371,512.374695 462.244171,512.237244 460.247650,512.174377 
	C458.574707,512.121643 457.214142,511.356934 457.053680,509.623810 
	C456.872040,507.661987 458.608032,507.140564 460.037048,506.904877 
	C466.756042,505.796570 473.483307,504.714813 480.234741,503.830872 
	C505.430573,500.532318 530.637207,497.316284 555.839294,494.065613 
	C559.002747,493.657593 562.105652,493.511871 565.168823,494.809082 
	C569.701782,496.728668 571.621704,500.305511 572.065430,505.397186 
z"/>
<path fill="#000000" opacity="1.000000" stroke="none" 
	d="
M368.952271,706.396729 
	C369.975861,699.892883 374.763641,702.342163 378.101135,702.106812 
	C383.443237,701.730042 381.666992,706.461975 382.717041,709.832947 
	C385.663910,706.380188 388.632507,703.490417 392.690796,702.239319 
	C394.916229,701.553162 397.750946,700.675293 399.253571,702.602966 
	C401.264954,705.183411 400.362488,708.695923 400.004364,711.770813 
	C399.689423,714.474609 397.153992,714.018799 395.238922,714.240356 
	C387.716003,715.110657 382.497894,720.592163 382.316437,728.214966 
	C382.142426,735.524719 382.126404,742.845947 382.333221,750.153870 
	C382.442261,754.006104 381.131531,755.428162 377.177063,755.398438 
	C368.919525,755.336182 368.929688,755.523865 368.935242,747.246460 
	C368.944275,733.782288 368.936432,720.318176 368.952271,706.396729 
z"/>
<path fill="#000000" opacity="1.000000" stroke="none" 
	d="
M422.176025,724.000183 
	C422.174103,733.140259 421.967865,741.786743 422.237762,750.418274 
	C422.414368,756.066467 418.767334,755.334045 415.275513,755.354126 
	C411.872101,755.373779 408.619049,755.832031 408.703766,750.538696 
	C408.935028,736.086609 408.937256,721.626648 408.735291,707.173950 
	C408.658997,701.716125 412.127655,702.103027 415.687958,701.946533 
	C419.381317,701.784363 422.342712,702.126404 422.168549,707.052490 
	C421.974945,712.528198 422.156006,718.017090 422.176025,724.000183 
z"/>
<path fill="#000000" opacity="1.000000" stroke="none" 
	d="
M611.936218,750.715576 
	C612.090210,754.950195 609.785461,755.428467 606.724609,755.326782 
	C603.606995,755.223206 602.788208,753.527039 602.796448,750.803711 
	C602.841003,735.997375 602.874878,721.190857 602.833313,706.384521 
	C602.824707,703.320129 603.903381,701.811890 607.179382,701.759888 
	C610.571655,701.706116 611.391113,703.349426 611.413147,706.368652 
	C611.519775,720.996826 611.753235,735.624084 611.936218,750.715576 
z"/>
<path fill="#000000" opacity="1.000000" stroke="none" 
	d="
M413.552490,680.381531 
	C420.101776,680.459045 423.598938,683.593140 423.208344,688.584961 
	C422.850952,693.151917 418.811035,696.104797 414.002228,695.248291 
	C410.744507,694.668030 408.482269,692.720825 407.943268,689.494141 
	C407.230438,685.227417 409.069397,682.120300 413.552490,680.381531 
z"/>
<path fill="#000000" opacity="1.000000" stroke="none" 
	d="
M569.457275,555.763977 
	C570.612793,559.767761 568.988831,562.345581 565.891479,563.799255 
	C563.018921,565.147339 560.424561,564.040222 558.459595,561.605225 
	C556.381104,559.029541 556.758972,556.355835 558.479248,553.849548 
	C561.085510,550.052368 566.011230,550.800476 569.457275,555.763977 
z"/>
<path fill="#000000" opacity="1.000000" stroke="none" 
	d="
M606.324951,681.020691 
	C610.852234,681.171021 613.478027,683.199890 613.023865,687.502014 
	C612.656372,690.982849 610.149048,692.597595 606.604614,692.257019 
	C603.966187,692.003540 602.300598,690.419189 601.739136,687.943054 
	C600.939148,684.414978 602.648376,682.217102 606.324951,681.020691 
z"/>
</svg>