<?xml version="1.0" encoding="UTF-8"?>
<svg version="1.1" xmlns="http://www.w3.org/2000/svg" width="1024" height="1024">
<path d="M0 0 C337.92 0 675.84 0 1024 0 C1024 337.92 1024 675.84 1024 1024 C686.08 1024 348.16 1024 0 1024 C0 686.08 0 348.16 0 0 Z " fill="#FAFBFB" transform="translate(0,0)"/>
<path d="M0 0 C0 0.66 0 1.32 0 2 C-1.19625 2.495 -2.3925 2.99 -3.625 3.5 C-13.7773158 8.03342403 -23.08763995 13.75972304 -31.890625 20.53125 C-34 22 -34 22 -36 22 C-36.23460937 22.57363281 -36.46921875 23.14726562 -36.7109375 23.73828125 C-38.29725027 26.52153911 -40.18569496 28.11446831 -42.625 30.1875 C-68.07832254 52.65060413 -84.04414554 86.35670921 -86.20263672 120.17480469 C-87.75624323 157.38395698 -78.37776641 193.03240661 -53.4375 221.3125 C-51.96687672 222.88304368 -50.48794905 224.44586104 -49 226 C-48.31679688 226.74636719 -47.63359375 227.49273438 -46.9296875 228.26171875 C-38.86762532 236.78489519 -29.21396285 243.32124457 -19 249 C-19.07704163 248.36608841 -19.15408325 247.73217682 -19.23345947 247.07905579 C-19.70977778 240.24516892 -19.70977778 240.24516892 -17.82409668 236.93710327 C-16.09982298 234.96337399 -14.29031592 233.19006271 -12.359375 231.41796875 C-11.6807843 230.7558992 -11.0021936 230.09382965 -10.30303955 229.41169739 C-8.14115312 227.31207227 -5.94751192 225.24974703 -3.75 223.1875 C-1.57499951 221.09997183 0.59302562 219.00539977 2.76019287 216.90974426 C4.10738408 215.61216664 5.46051482 214.3207187 6.82037354 213.03642273 C10.16653613 209.86477144 13.22224061 206.70120268 16 203 C19.63061667 204.53218685 21.9863773 206.7183144 24.75 209.5 C25.94882812 210.69109375 25.94882812 210.69109375 27.171875 211.90625 C29 214 29 214 29 216 C29.66 216 30.32 216 31 216 C29.41060574 219.93214301 26.83657498 222.33020346 23.8125 225.25 C20.61088224 228.34862866 17.56583867 231.45814392 14.66015625 234.8359375 C10.85765764 239.23471213 6.77256039 243.30382193 2.625 247.375 C1.19824009 248.77632747 -0.22635507 250.1798635 -1.6484375 251.5859375 C-2.26895996 252.1948584 -2.88948242 252.8037793 -3.52880859 253.43115234 C-5.09461962 254.95123461 -5.09461962 254.95123461 -6 257 C-2.91010876 258.71660625 -0.53684532 259.42223575 3 259 C7.03202181 255.91998334 10.29643028 252.37172791 13.62060547 248.55688477 C15.64741589 246.26927944 17.81794266 244.13856118 20 242 C24.33828333 237.74771788 28.45201647 233.39383188 32.4296875 228.80078125 C34.2059087 226.76387087 35.97841862 224.79696122 38 223 C40 223 40 223 42.1875 224.75 C44 227 44 227 43.79724121 228.93637085 C42.8838208 231.30072553 41.8603072 232.49640123 40.05664062 234.26806641 C39.43930054 234.88195221 38.82196045 235.49583801 38.18591309 236.12832642 C37.18122986 237.10507828 37.18122986 237.10507828 36.15625 238.1015625 C35.47195923 238.77923676 34.78766846 239.45691101 34.0826416 240.15512085 C31.89540119 242.31895014 29.69825783 244.47236911 27.5 246.625 C25.30349937 248.78646796 23.1091364 250.95004587 20.9173584 253.11630249 C19.55274034 254.46391002 18.18505834 255.80842315 16.81408691 257.14956665 C16.19674683 257.75714813 15.57940674 258.36472961 14.94335938 258.99072266 C14.12514709 259.7920311 14.12514709 259.7920311 13.29040527 260.60952759 C11.88788279 261.99038313 11.88788279 261.99038313 11 264 C17.0958905 265.42300801 17.0958905 265.42300801 22.98077393 264.00247192 C24.83900139 262.43032035 26.46522757 260.77463442 28.1015625 258.97265625 C28.70890228 258.34975204 29.31624207 257.72684784 29.94198608 257.08506775 C31.86381981 255.1019636 33.74377136 253.08408649 35.625 251.0625 C36.9257943 249.70649399 38.22915724 248.35294709 39.53515625 247.00195312 C42.72054455 243.6956966 45.86892909 240.35770744 49 237 C51.99072991 238.33042756 53.94291687 239.74033262 56.13671875 242.16015625 C56.70994873 242.78510986 57.28317871 243.41006348 57.8737793 244.05395508 C58.47230713 244.7167749 59.07083496 245.37959473 59.6875 246.0625 C60.93634355 247.42293749 62.18634322 248.78231461 63.4375 250.140625 C64.04464844 250.80126953 64.65179687 251.46191406 65.27734375 252.14257812 C71.65358945 259.12678384 71.65358945 259.12678384 79 265 C81.31033938 264.80902058 81.31033938 264.80902058 83.6875 264.125 C84.49574219 263.92132812 85.30398438 263.71765625 86.13671875 263.5078125 C86.75160156 263.34023438 87.36648438 263.17265625 88 263 C77.44751132 251.22403437 66.22788112 240.12532178 55 229 C56.65 227.02 58.3 225.04 60 223 C64.98163601 227.15262183 69.55428375 231.50060597 74.03515625 236.18359375 C75.35130451 237.5366921 76.66838917 238.88888014 77.98632812 240.24023438 C80.03806289 242.34774829 82.08381249 244.45983184 84.11450195 246.58764648 C86.09290778 248.6566808 88.09274729 250.70277458 90.09765625 252.74609375 C90.70094254 253.38864609 91.30422882 254.03119843 91.92579651 254.69322205 C95.4114314 258.30912611 95.4114314 258.30912611 100.24389648 259.01586914 C103.15650448 258.06373284 103.15650448 258.06373284 106 256 C105.53503616 255.53503616 105.07007233 255.07007233 104.59101868 254.59101868 C93.74598185 243.74598185 82.90094503 232.90094503 72.0559082 222.0559082 C70.99190292 220.9996373 70.99190292 220.9996373 69.90640259 219.92202759 C68.74403539 218.75013356 67.59829235 217.56103026 66.48397827 216.34335327 C65.10425795 214.79911969 65.10425795 214.79911969 63 213 C59.12941172 212.59184052 59.12941172 212.59184052 57.11328125 214.4609375 C56.22189453 215.40839844 56.22189453 215.40839844 55.3125 216.375 C54.71050781 217.00148438 54.10851562 217.62796875 53.48828125 218.2734375 C51.92657832 219.94247708 51.92657832 219.94247708 51 222 C48.1856082 220.72336745 46.19461004 219.42594442 44.07080078 217.18676758 C43.529888 216.62310989 42.98897522 216.05945221 42.43167114 215.47871399 C41.57217361 214.57079353 41.57217361 214.57079353 40.6953125 213.64453125 C39.46038523 212.36971593 38.22468434 211.09564965 36.98828125 209.82226562 C35.04917198 207.81497493 33.11598969 205.80299595 31.19580078 203.77758789 C29.33638982 201.82147616 27.45564678 199.88812485 25.5703125 197.95703125 C25.00136261 197.34567825 24.43241272 196.73432526 23.84622192 196.10444641 C20.44333969 192.62857907 20.44333969 192.62857907 15.71435547 191.87768555 C12.45364193 193.22590466 12.44701078 193.94676789 11 197 C9.70323181 198.54400635 9.70323181 198.54400635 8.21850586 200.02441406 C7.66130356 200.58469299 7.10410126 201.14497192 6.53001404 201.722229 C5.93100784 202.31404968 5.33200165 202.90587036 4.71484375 203.515625 C4.09855606 204.13145447 3.48226837 204.74728394 2.8473053 205.3817749 C1.54762353 206.67844188 0.24551846 207.97268387 -1.05883789 209.26464844 C-3.06392219 211.25140919 -5.06082194 213.24612335 -7.05664062 215.2421875 C-8.31984024 216.50047428 -9.5834963 217.75830304 -10.84765625 219.015625 C-11.44868668 219.6155426 -12.0497171 220.21546021 -12.66896057 220.83355713 C-16.88393865 225 -16.88393865 225 -18 225 C-18.09286979 217.41110638 -18.16385075 209.82227203 -18.20724869 202.23293877 C-18.22808269 198.70847306 -18.25632202 195.18439747 -18.30175781 191.66015625 C-18.35371956 187.60412957 -18.37297967 183.54850971 -18.390625 179.4921875 C-18.41127014 178.23260223 -18.43191528 176.97301697 -18.45318604 175.67526245 C-18.45445418 170.71906634 -18.43051044 166.97480811 -16.41308594 162.40673828 C-11.51216515 157.51870943 -6.29050584 155.54696255 0.28515625 153.73828125 C0.97067566 153.54640732 1.65619507 153.35453339 2.36248779 153.15684509 C3.83099317 152.74677722 5.30066824 152.34087871 6.77139282 151.93884277 C10.70169031 150.86437823 14.62357402 149.75983745 18.546875 148.66015625 C19.3428157 148.4380246 20.13875641 148.21589294 20.95881653 147.98703003 C28.6091636 145.84614763 36.21157705 143.55908476 43.8125 141.25 C48.54009137 139.82804377 53.26982049 138.41331865 58 137 C59.0828125 136.67418945 60.165625 136.34837891 61.28125 136.01269531 C64.28672945 135.11532908 67.29796574 134.24138494 70.3125 133.375 C71.60087769 132.98489746 71.60087769 132.98489746 72.9152832 132.58691406 C78.44934737 131.03051026 83.36615026 130.5766815 89 132 C92 133.875 92 133.875 94 137 C94.68616032 140.6681202 94.92819524 144.27268017 95 148 C92.69 148 90.38 148 88 148 C87.01 144.535 87.01 144.535 86 141 C79.27114662 141.16303389 73.12590889 142.39664084 66.703125 144.2734375 C57.55919116 146.87708112 48.3657188 149.20512055 39.125 151.4375 C38.33837982 151.62843231 37.55175964 151.81936462 36.74130249 152.01608276 C-4.44332902 162 -4.44332902 162 -10 162 C-11.20776206 165.62328619 -11.40040892 168.19611527 -11 172 C-8.85324377 174.54616757 -7.08674374 175.82548446 -3.76067352 176.35960388 C-0.90032866 176.50581836 1.93387977 176.51405094 4.79785156 176.48242188 C5.88627853 176.48633438 6.97470551 176.49024689 8.09611511 176.49427795 C10.45763826 176.50025218 12.81919821 176.49708439 15.18070221 176.4858551 C18.9223803 176.46860359 22.66328499 176.47609713 26.40496826 176.4901123 C35.0273328 176.51762779 43.64952885 176.50844314 52.27190399 176.49741364 C60.79611827 176.48694523 69.32004362 176.49219802 77.84423065 176.52406311 C81.52301673 176.53114393 85.20120493 176.51449262 88.87994385 176.49694824 C91.14815591 176.50265847 93.41636553 176.50947691 95.68457031 176.51757812 C96.70099106 176.50626358 97.7174118 176.49494904 98.76463318 176.48329163 C106.07572751 176.54548667 112.28221572 177.96912062 118.05078125 182.671875 C119.59558674 186.46078066 119.31067096 190.20746586 119.1875 194.25 C119.17396484 195.09046875 119.16042969 195.9309375 119.14648438 196.796875 C119.11123464 198.86485938 119.0574302 200.93251271 119 203 C118.30438965 203.0093457 117.6087793 203.01869141 116.89208984 203.02832031 C113.719025 203.08223546 110.5474009 203.16584173 107.375 203.25 C106.28058594 203.26417969 105.18617188 203.27835938 104.05859375 203.29296875 C97.82850286 203.48175938 93.64305071 203.65003222 89 208 C86.26537595 211.99919008 86.33512404 216.32154352 87 221 C89.07896033 225.08367208 90.75091352 227.33694695 95 229 C97.70534857 229.36388886 97.70534857 229.36388886 100.640625 229.4140625 C102.24550781 229.47207031 102.24550781 229.47207031 103.8828125 229.53125 C105.54957031 229.57765625 105.54957031 229.57765625 107.25 229.625 C108.93996094 229.68300781 108.93996094 229.68300781 110.6640625 229.7421875 C113.44244109 229.83636983 116.22119799 229.91927028 119 230 C119.33 236.27 119.66 242.54 120 249 C138.31678155 237.78564395 154.36625111 224.28564911 166 206 C166.84111328 204.71996094 166.84111328 204.71996094 167.69921875 203.4140625 C176.31164213 189.59547757 181.80133377 173.90915571 185 158 C185.22429687 156.93652344 185.44859375 155.87304688 185.6796875 154.77734375 C188.85945413 136.8530428 187.94985112 117.7164202 184 100 C183.84966309 99.31099609 183.69932617 98.62199219 183.54443359 97.91210938 C177.09687392 69.76513028 160.01091655 41.70070504 137 24 C136.34 23.67 135.68 23.34 135 23 C135 22.34 135 21.68 135 21 C134.47148438 20.75121094 133.94296875 20.50242187 133.3984375 20.24609375 C129.21469137 18.07245366 125.28241435 15.47434622 121.2890625 12.97265625 C118.25241509 11.1513891 115.18839585 9.53640223 112 8 C112 7.34 112 6.68 112 6 C110.6078125 5.8453125 110.6078125 5.8453125 109.1875 5.6875 C105.96745642 4.9929808 104.97420135 4.52259061 103 2 C103.66 1.34 104.32 0.68 105 0 C108.13228762 0.46208996 111.06081847 1.05337088 114.125 1.8125 C115.05860352 2.04259766 115.99220703 2.27269531 116.95410156 2.50976562 C137.57135663 7.8299064 156.52439499 16.52171944 175 27 C176.33659668 27.74854248 176.33659668 27.74854248 177.70019531 28.51220703 C189.39801164 35.19188795 196.36650408 41.75903291 202 54 C202.35239746 54.73089844 202.70479492 55.46179688 203.06787109 56.21484375 C208.91922704 68.36945796 213.01009843 80.6496592 216.1875 93.75 C216.35475586 94.43521729 216.52201172 95.12043457 216.69433594 95.82641602 C218.59991422 104.00566876 219.16467585 112.16677214 219.2734375 120.546875 C219.28582962 121.43260193 219.29822174 122.31832886 219.31098938 123.230896 C219.34312981 126.07063601 219.36213665 128.91010912 219.375 131.75 C219.37956207 132.71542725 219.38412415 133.68085449 219.38882446 134.67553711 C219.41119117 147.85844614 218.99818106 160.26549515 214.69824219 172.86035156 C213.89358912 175.32607865 213.26246515 177.81512334 212.62109375 180.328125 C211.03507848 186.20233098 208.82625644 191.68860835 206.375 197.25 C205.93551025 198.25071533 205.49602051 199.25143066 205.04321289 200.2824707 C196.92883941 218.38936947 185.6536697 233.6822033 172 248 C171.23300781 248.83144531 170.46601562 249.66289063 169.67578125 250.51953125 C157.99323716 262.79711155 144.06483179 272.3718254 129 280 C128.30374512 280.35433105 127.60749023 280.70866211 126.89013672 281.07373047 C113.47647418 287.82180165 99.9609336 292.47918537 85.3125 295.75 C84.3745459 295.96100342 83.4365918 296.17200684 82.47021484 296.3894043 C39.05719719 305.63259179 -7.04960107 295.04523226 -44.04345703 271.30908203 C-56.88917768 262.71427867 -69.31749655 252.06028638 -79 240 C-79.76828125 239.05769531 -80.5365625 238.11539063 -81.328125 237.14453125 C-100.30842199 213.45231659 -111.39002829 186.64149888 -117 157 C-117.24878906 155.75089844 -117.49757813 154.50179687 -117.75390625 153.21484375 C-121.14129117 132.96159822 -119.92753905 111.84871616 -115 92 C-114.68429741 90.63555499 -114.3691626 89.27097844 -114.0546875 87.90625 C-110.92838847 75.19088253 -105.98228959 63.58802443 -100 52 C-99.39551025 50.81615723 -99.39551025 50.81615723 -98.77880859 49.60839844 C-94.622905 41.76373416 -90.05197048 36.22926556 -82.4375 31.5 C-81.83470215 31.12399658 -81.2319043 30.74799316 -80.61083984 30.3605957 C-74.55701554 26.63121893 -68.32727444 23.24253092 -62 20 C-61.39341553 19.68611328 -60.78683105 19.37222656 -60.16186523 19.04882812 C-45.14613321 11.38375367 -29.27300049 6.24136715 -13 2 C-11.87174805 1.70198486 -11.87174805 1.70198486 -10.72070312 1.39794922 C-7.05013962 0.44852133 -3.80338058 -0.23771129 0 0 Z " fill="#146E8D" transform="translate(462,340)"/>
<path d="M0 0 C0.8146875 0.49757812 1.629375 0.99515625 2.46875 1.5078125 C14.1636165 9.08129532 19.65378735 17.96136206 24 31 C26.16339564 58.84599247 9.11834266 79.01228079 -7.75390625 99.3828125 C-11.73152238 104.01759999 -15.84923112 108.51994256 -20 113 C-37.5808122 98.34932316 -62.97715161 70.78078958 -65.20361328 46.80761719 C-65.30355989 44.40990311 -65.32208339 42.02467994 -65.3125 39.625 C-65.32861328 38.82578125 -65.34472656 38.0265625 -65.36132812 37.203125 C-65.36942844 27.19114022 -61.85506826 19.93218759 -56 12 C-55.278125 10.96875 -54.55625 9.9375 -53.8125 8.875 C-42.3512963 -4.49018217 -15.07211939 -10.10788959 0 0 Z " fill="#72C3E6" transform="translate(533,246)"/>
<path d="M0 0 C2 1 2 1 3.125 4.25 C3.86256086 7.41097511 4.07710838 9.80551001 4 13 C4.589021 13.04487549 5.17804199 13.08975098 5.78491211 13.13598633 C8.50350163 13.34981994 11.22035495 13.58105974 13.9375 13.8125 C14.86369141 13.88275391 15.78988281 13.95300781 16.74414062 14.02539062 C22.89107155 14.56459509 28.25390687 15.76635956 34 18 C35.18464844 18.44859375 36.36929688 18.8971875 37.58984375 19.359375 C46.24562898 22.9550104 53.29385403 27.3373607 60.66015625 33.0703125 C61.53542969 33.72773438 62.41070313 34.38515625 63.3125 35.0625 C64.09238281 35.67222656 64.87226562 36.28195312 65.67578125 36.91015625 C67.98682045 38.2979376 67.98682045 38.2979376 70.5625 37.31640625 C73.65438404 35.64675587 73.65438404 35.64675587 76.6875 33.875 C80 32 80 32 82 32 C80.92575651 34.80955989 79.79100379 37.37154882 78.3125 40 C76.80375062 43.44857001 76.93733108 44.47754923 78 48 C79.3012304 49.9561308 79.3012304 49.9561308 81 51.8125 C93.08661515 66.75911667 102 86.55761678 102 106 C102.83144531 106.20496094 103.66289063 106.40992188 104.51953125 106.62109375 C105.60621094 106.89050781 106.69289063 107.15992188 107.8125 107.4375 C108.89144531 107.70433594 109.97039062 107.97117187 111.08203125 108.24609375 C113.0740843 108.76077412 115.04811524 109.34937175 117 110 C117 110.66 117 111.32 117 112 C114.87607494 112.6700834 112.75082476 113.33596797 110.625 114 C108.84996094 114.556875 108.84996094 114.556875 107.0390625 115.125 C104 116 104 116 102 116 C102.00902344 116.83917969 102.01804687 117.67835938 102.02734375 118.54296875 C101.56255951 137.39704237 93.91362845 158.28316486 82 173 C81.67 173 81.34 173 81 173 C80.50006679 169.7722759 80.005362 166.54472916 79.53515625 163.3125 C79.05278228 159.92962702 79.05278228 159.92962702 78 156.4375 C78 152.53382789 78.84862382 151.0780727 80.6875 147.6875 C83.5307885 142.43835199 85.11413477 137.47469981 86.375 131.6875 C86.54217529 130.9349292 86.70935059 130.1823584 86.8815918 129.40698242 C87.81894273 124.85219224 88.15962287 120.64748115 88 116 C84.7 114.68 81.4 113.36 78 112 C78 111.34 78 110.68 78 110 C81.3 109.01 84.6 108.02 88 107 C86.24102775 87.02122567 80.18486272 70.25080071 67 55 C63.1936543 55.67170806 59.64793184 56.72746564 56 58 C56.59950296 54.31733897 57.24758891 50.65456815 58 47 C51.55622498 40.71339022 43.97818339 36.98126337 36 33 C35.13503906 32.56171875 34.27007813 32.1234375 33.37890625 31.671875 C24.14578382 27.2610429 15.1227217 26.68692613 5 27 C3.68 29.97 2.36 32.94 1 36 C-1.86111712 33.13888288 -2.7915004 31.7184603 -4 28 C-4 27.01 -4 26.02 -4 25 C-24.83356579 27.73190681 -41.5444539 33.32859932 -58 47 C-57.71125 47.86625 -57.4225 48.7325 -57.125 49.625 C-56.08333333 52.75 -55.04166667 55.875 -54 59 C-55.41791408 58.54554036 -56.83428046 58.08625056 -58.25 57.625 C-59.03890625 57.36976563 -59.8278125 57.11453125 -60.640625 56.8515625 C-62.86627958 56.04826333 -64.90931672 55.10288338 -67 54 C-67.25265625 54.53753906 -67.5053125 55.07507813 -67.765625 55.62890625 C-69.26648952 58.511896 -71.00211607 61.19711608 -72.75 63.9375 C-80.37081814 76.2320501 -87.75746201 91.08382506 -87 106 C-84.03 107.32 -81.06 108.64 -78 110 C-78 110.66 -78 111.32 -78 112 C-80.97 113.32 -83.94 114.64 -87 116 C-86.80327669 127.44572007 -84.63783945 137.90128804 -79.93383789 148.37353516 C-78.90428714 151.26919711 -78.77045002 153.45527692 -78.8046875 156.51953125 C-78.81113281 157.54111328 -78.81757813 158.56269531 -78.82421875 159.61523438 C-78.84097656 160.67033203 -78.85773438 161.72542969 -78.875 162.8125 C-78.88402344 163.88693359 -78.89304687 164.96136719 -78.90234375 166.06835938 C-78.92584694 168.71246854 -78.95870425 171.35611872 -79 174 C-92.23817028 161.2744188 -100.35633587 139.98154671 -101.09423828 121.66015625 C-101.09714005 119.77317825 -101.05358577 117.88621923 -101 116 C-101.87011719 115.81824219 -101.87011719 115.81824219 -102.7578125 115.6328125 C-107.28028442 114.66264526 -111.63750966 113.56602217 -116 112 C-116 111.34 -116 110.68 -116 110 C-113.87607494 109.3299166 -111.75082476 108.66403203 -109.625 108 C-108.44164062 107.62875 -107.25828125 107.2575 -106.0390625 106.875 C-103 106 -103 106 -101 106 C-100.97873047 104.99646484 -100.97873047 104.99646484 -100.95703125 103.97265625 C-99.95941941 83.88560702 -91.29145596 65.85528173 -78.75 50.41796875 C-76.56497729 47.47463675 -76.56497729 47.47463675 -76 44 C-77.18834241 40.89611378 -77.18834241 40.89611378 -78.9375 37.75 C-79.50339844 36.67234375 -80.06929688 35.5946875 -80.65234375 34.484375 C-81.09707031 33.66453125 -81.54179687 32.8446875 -82 32 C-78.09822037 33.49285482 -74.57408174 35.30369927 -70.96484375 37.390625 C-69.01512098 38.20202187 -69.01512098 38.20202187 -67.140625 37.3984375 C-64.86722598 35.91326077 -62.69626928 34.31816356 -60.53540039 32.67431641 C-44.14560357 20.31403602 -24.71453026 12.63658719 -4 13 C-3.896875 11.96875 -3.79375 10.9375 -3.6875 9.875 C-3.00872203 6.04916055 -1.88841205 3.36629975 0 0 Z " fill="#3F9DC2" transform="translate(512,363)"/>
<path d="M0 0 C0 0.66 0 1.32 0 2 C-1.19625 2.495 -2.3925 2.99 -3.625 3.5 C-13.7773158 8.03342403 -23.08763995 13.75972304 -31.890625 20.53125 C-34 22 -34 22 -36 22 C-36.23460937 22.57363281 -36.46921875 23.14726562 -36.7109375 23.73828125 C-38.29725027 26.52153911 -40.18569496 28.11446831 -42.625 30.1875 C-68.07832254 52.65060413 -84.04414554 86.35670921 -86.20263672 120.17480469 C-87.37484364 148.24936913 -81.96676517 173.65028443 -70 199 C-70.99 199 -71.98 199 -73 199 C-98.41859115 172.15872651 -108.09575835 135.3359917 -114 100 C-114.66 101.98 -115.32 103.96 -116 106 C-116.33 106 -116.66 106 -117 106 C-116.92255846 89.46623026 -110.22550089 72.64931951 -103 58 C-102.67209473 57.33178223 -102.34418945 56.66356445 -102.00634766 55.97509766 C-92.71985554 37.28185669 -80.22277065 29.33860191 -62 20 C-61.39341553 19.68611328 -60.78683105 19.37222656 -60.16186523 19.04882812 C-45.14613321 11.38375367 -29.27300049 6.24136715 -13 2 C-11.87174805 1.70198486 -11.87174805 1.70198486 -10.72070312 1.39794922 C-7.05013962 0.44852133 -3.80338058 -0.23771129 0 0 Z " fill="#61B3D0" transform="translate(462,340)"/>
<path d="M0 0 C25.58081522 4.93551188 48.36404307 14.16221161 71 27 C71.89106445 27.49902832 72.78212891 27.99805664 73.70019531 28.51220703 C85.39801164 35.19188795 92.36650408 41.75903291 98 54 C98.35239746 54.73089844 98.70479492 55.46179688 99.06787109 56.21484375 C103.56713834 65.56085827 107.32833299 74.95866214 110 85 C110.44666016 86.62808594 110.44666016 86.62808594 110.90234375 88.2890625 C112.14023982 92.97823562 113.17664739 97.12453216 113 102 C112.690625 101.360625 112.38125 100.72125 112.0625 100.0625 C111.1654837 98.06389179 111.1654837 98.06389179 110 97 C110.02320313 97.61746094 110.04640625 98.23492187 110.0703125 98.87109375 C110.08835937 99.71800781 110.10640625 100.56492187 110.125 101.4375 C110.14820313 102.26121094 110.17140625 103.08492188 110.1953125 103.93359375 C109.98084941 107.30066427 109.32470857 110.3739835 108.55273438 113.65112305 C108.03075701 115.86929628 107.55963655 118.09131192 107.10546875 120.32421875 C105.12121979 129.86267109 102.65732132 138.94565857 99 148 C98.52602783 149.18964355 98.52602783 149.18964355 98.04248047 150.40332031 C92.08842419 165.22316921 85.36526607 181.38287208 74 193 C73.34 193 72.68 193 72 193 C72.43540858 191.66598223 72.87347586 190.33283226 73.3125 189 C73.58449219 188.17371094 73.85648438 187.34742188 74.13671875 186.49609375 C74.89282131 184.30989676 75.73861106 182.19769307 76.625 180.0625 C78.03115623 176.35865551 78.3944122 172.91663629 78.6875 168.984375 C79.22556999 163.8458066 80.29372735 158.80232118 81.28125 153.734375 C81.5184375 152.50203125 81.755625 151.2696875 82 150 C82.19078125 149.09121094 82.3815625 148.18242187 82.578125 147.24609375 C84.60393064 131.65864476 83.41096677 115.29934135 80 100 C79.84966309 99.31099609 79.69932617 98.62199219 79.54443359 97.91210938 C73.09687392 69.76513028 56.01091655 41.70070504 33 24 C32.34 23.67 31.68 23.34 31 23 C31 22.34 31 21.68 31 21 C30.47148438 20.75121094 29.94296875 20.50242187 29.3984375 20.24609375 C25.21469137 18.07245366 21.28241435 15.47434622 17.2890625 12.97265625 C14.25241509 11.1513891 11.18839585 9.53640223 8 8 C8 7.34 8 6.68 8 6 C6.6078125 5.8453125 6.6078125 5.8453125 5.1875 5.6875 C1.96745642 4.9929808 0.97420135 4.52259061 -1 2 C-0.67 1.34 -0.34 0.68 0 0 Z " fill="#61B2D0" transform="translate(566,340)"/>
<path d="M0 0 C7.5355305 3.39613438 10.99539167 8.44852265 15.01171875 15.41015625 C17.78680713 24.66045085 16.5124186 33.61133524 12.13671875 42.16015625 C7.74087495 48.57156162 1.02433275 52.22884871 -6.58984375 53.6796875 C-12.30179156 53.91842216 -17.25165586 52.61088749 -21.86328125 49.16015625 C-22.85328125 47.84015625 -23.84328125 46.52015625 -24.86328125 45.16015625 C-25.19328125 53.41015625 -25.52328125 61.66015625 -25.86328125 70.16015625 C-29.82328125 70.16015625 -33.78328125 70.16015625 -37.86328125 70.16015625 C-37.86328125 47.06015625 -37.86328125 23.96015625 -37.86328125 0.16015625 C-34.23328125 0.16015625 -30.60328125 0.16015625 -26.86328125 0.16015625 C-26.86328125 2.47015625 -26.86328125 4.78015625 -26.86328125 7.16015625 C-26.404375 6.75023437 -25.94546875 6.3403125 -25.47265625 5.91796875 C-24.8590625 5.37914062 -24.24546875 4.8403125 -23.61328125 4.28515625 C-22.70835937 3.48464844 -22.70835937 3.48464844 -21.78515625 2.66796875 C-15.48413319 -2.27551682 -7.52982007 -2.20861025 0 0 Z " fill="#0D5677" transform="translate(473.86328125,701.83984375)"/>
<path d="M0 0 C6.20626615 0.53967532 11.31509342 2.51722309 17 5 C17.92627197 5.40299316 18.85254395 5.80598633 19.80688477 6.22119141 C36.93289567 13.83966602 52.1491946 24.29877365 65 38 C65.845625 38.845625 66.69125 39.69125 67.5625 40.5625 C68.366875 41.366875 69.17125 42.17125 70 43 C70.48597656 43.43957031 70.97195313 43.87914062 71.47265625 44.33203125 C77.96807081 50.39748929 82.86908193 57.79073537 88 65 C87.67 65.66 87.34 66.32 87 67 C86.23042969 66.44054687 85.46085938 65.88109375 84.66796875 65.3046875 C62.47959958 49.63800103 37.61965961 38.43706659 11.3125 31.875 C10.42062988 31.64997803 9.52875977 31.42495605 8.60986328 31.19311523 C7.78599121 31.00305908 6.96211914 30.81300293 6.11328125 30.6171875 C5.38923096 30.44815918 4.66518066 30.27913086 3.91918945 30.10498047 C1.66651336 29.78948383 1.66651336 29.78948383 -1 32 C-3.83747778 31.32788889 -6.44554976 30.57330768 -9.1875 29.625 C-9.93708984 29.3775 -10.68667969 29.13 -11.45898438 28.875 C-13.30998373 28.26193015 -15.15555098 27.63250381 -17 27 C-16.21625 26.01 -15.4325 25.02 -14.625 24 C-11.40284345 19.71151826 -8.53460699 15.22899779 -5.6875 10.6875 C-5.02065186 9.62885742 -5.02065186 9.62885742 -4.34033203 8.54882812 C-3.92251465 7.87658203 -3.50469727 7.20433594 -3.07421875 6.51171875 C-2.69869873 5.90803467 -2.32317871 5.30435059 -1.9362793 4.68237305 C-0.84517851 2.84389354 -0.84517851 2.84389354 0 0 Z " fill="#D5EBF2" transform="translate(565,311)"/>
<path d="M0 0 C1.5078125 2.484375 1.5078125 2.484375 3.125 5.75 C6.84603701 12.94506728 11.26562335 19.4405802 16 26 C12.98509443 28.00993705 10.7850073 28.72623341 7.3125 29.625 C5.82169922 30.01558594 5.82169922 30.01558594 4.30078125 30.4140625 C3.54152344 30.60742188 2.78226562 30.80078125 2 31 C2 30.34 2 29.68 2 29 C-14.05297901 32.76060856 -29.72658387 36.72295404 -45 43 C-46.00885254 43.40847168 -46.00885254 43.40847168 -47.03808594 43.82519531 C-53.60159824 46.49515334 -59.946731 49.30078006 -66 53 C-67.95800285 54.12557509 -69.91637277 55.25051175 -71.875 56.375 C-77.05324524 59.39455611 -82.06558529 62.5982444 -87 66 C-87 62.19703138 -85.96597974 61.38604975 -83.5625 58.5 C-82.83160156 57.61570312 -82.10070312 56.73140625 -81.34765625 55.8203125 C-80.57292969 54.88960938 -79.79820312 53.95890625 -79 53 C-78.25621094 52.06929688 -77.51242187 51.13859375 -76.74609375 50.1796875 C-72.1379952 44.42557487 -67.37885428 39.04267589 -62 34 C-61.4225 33.45214844 -60.845 32.90429688 -60.25 32.33984375 C-45.64707522 19.02726361 -28.39917576 8.29124687 -9.9375 1.25 C-9.27693604 0.99758545 -8.61637207 0.7451709 -7.93579102 0.48510742 C-4.68795342 -0.67081521 -3.36123116 -1.12041039 0 0 Z " fill="#DAEEF4" transform="translate(460,311)"/>
<path d="M0 0 C2.97 0 5.94 0 9 0 C9.18062988 0.59723877 9.36125977 1.19447754 9.54736328 1.80981445 C10.40540821 4.64439813 11.26494173 7.47852653 12.125 10.3125 C12.44122314 11.35470703 12.75744629 12.39691406 13.08325195 13.47070312 C15.0692012 19.99674612 17.10601381 26.50389603 19.1875 33 C21.44295203 40.04262482 23.42684683 47.11975665 25.23828125 54.2890625 C25.73189934 56.89505578 25.73189934 56.89505578 27 58 C27.17233154 57.27876953 27.34466309 56.55753906 27.5222168 55.81445312 C29.3579782 48.28474047 31.49298349 40.89345888 33.8125 33.5 C34.51751727 31.23195421 35.22193692 28.96372257 35.92578125 26.6953125 C36.27334473 25.57672852 36.6209082 24.45814453 36.97900391 23.30566406 C38.51363192 18.33702146 40.01066301 13.35737666 41.5 8.375 C41.75499268 7.52228516 42.00998535 6.66957031 42.27270508 5.79101562 C42.84926796 3.86091526 43.42477238 1.93049874 44 0 C46.64 0 49.28 0 52 0 C60.06468174 24.00328673 60.06468174 24.00328673 62.99609375 33.69140625 C64.36968464 38.21837699 65.77474776 42.73511756 67.1875 47.25 C67.44998535 48.09796143 67.7124707 48.94592285 67.98291016 49.81958008 C68.22960449 50.6061499 68.47629883 51.39271973 68.73046875 52.203125 C68.95114014 52.91114258 69.17181152 53.61916016 69.39916992 54.34863281 C69.87349238 56.01440041 69.87349238 56.01440041 71 57 C71.13535156 56.40058594 71.27070312 55.80117188 71.41015625 55.18359375 C73.83299088 44.98447553 76.99743393 35.016477 80.08154297 25.00244141 C81.7999386 19.38499604 83.46914817 13.75265317 85.1340332 8.11914062 C86.89113003 2.21773994 86.89113003 2.21773994 88 0 C90.64 0 93.28 0 96 0 C92.14375772 14.51577378 87.77321721 28.78617692 82.96020508 43.01049805 C79.97025535 51.92181873 77.38709475 60.91067769 75 70 C72.03 70 69.06 70 66 70 C62.75108461 60.45421768 59.62227008 50.90017126 56.83203125 41.2097168 C55.09079522 35.2031546 53.13615095 29.2842461 51.11328125 23.3671875 C49.97713249 19.93083581 48.97125186 16.48586283 48 13 C47.72027344 13.97195313 47.44054687 14.94390625 47.15234375 15.9453125 C44.72448565 24.31791329 42.17492751 32.64041947 39.5 40.9375 C36.40288813 50.55759815 33.61504491 60.23877244 31 70 C28.03 70 25.06 70 22 70 C19.33064193 62.83248961 16.84264727 55.67147759 14.75 48.3125 C12.20583556 39.37148872 9.22662665 30.58368017 6.20996094 21.79223633 C3.76883254 14.59981523 1.71986951 7.39844742 0 0 Z " fill="#145C7A" transform="translate(495,684)"/>
<path d="M0 0 C6.03566463 4.72241013 9.86849659 9.97980663 11.77734375 17.390625 C11.77734375 20.690625 11.77734375 23.990625 11.77734375 27.390625 C-2.41265625 27.390625 -16.60265625 27.390625 -31.22265625 27.390625 C-27.30199222 36.77652146 -27.30199222 36.77652146 -19.97265625 42.703125 C-12.01555152 44.69240118 -6.38012729 43.01781535 0.77734375 39.390625 C2.43929113 38.71227913 4.10333278 38.03862925 5.77734375 37.390625 C6.76734375 38.380625 7.75734375 39.370625 8.77734375 40.390625 C6.69383362 45.59940033 2.6153541 47.06608013 -2.22265625 49.390625 C-9.32891493 52.43616443 -15.87404647 52.07131416 -22.98828125 49.421875 C-30.50417535 45.9530008 -35.11001964 41.07202435 -38.22265625 33.390625 C-40.39410758 24.53778494 -39.84782687 16.35475306 -35.22265625 8.390625 C-27.04238386 -2.26906623 -12.39708393 -7.44349225 0 0 Z " fill="#15607F" transform="translate(711.22265625,703.609375)"/>
<path d="M0 0 C6.08350503 0.11676593 11.73683367 2.78724198 15.9609375 7.13671875 C19.44956407 12.10750747 20.68742772 17.34214267 20.25 23.375 C18.7829794 30.282222 15.9683567 34.37580631 10.15234375 38.31640625 C4.76042932 41.31683502 -1.9184429 41.21537869 -7.8515625 39.9140625 C-13.55092019 37.77994178 -16.33821605 33.51701703 -19.5625 28.625 C-21.71317676 22.73893729 -21.75426823 16.90022851 -19.1875 11.125 C-16.29679573 6.08925015 -12.43703117 2.17539226 -6.8125 0.5 C-4.53745297 0.40714094 -2.2656413 0.22656413 0 0 Z " fill="#F9FAFB" transform="translate(512.75,265.625)"/>
<path d="M0 0 C18.48 0 36.96 0 56 0 C56 3.3 56 6.6 56 10 C48.74 10 41.48 10 34 10 C34 29.14 34 48.28 34 68 C30.04 68 26.08 68 22 68 C22 48.86 22 29.72 22 10 C14.74 10 7.48 10 0 10 C0 6.7 0 3.4 0 0 Z " fill="#0C5474" transform="translate(304,685)"/>
<path d="M0 0 C3 1.625 3 1.625 5 3 C4.01 4.98 3.02 6.96 2 9 C1.23816406 8.71125 0.47632813 8.4225 -0.30859375 8.125 C-9.43798719 4.79208695 -9.43798719 4.79208695 -19 5 C-22.14849606 6.41670711 -22.14849606 6.41670711 -24 9 C-24.66680368 12.04279372 -24.66680368 12.04279372 -24 15 C-21.8166707 17.79438688 -19.75135462 18.59963877 -16.375 19.5 C-15.49070312 19.74878906 -14.60640625 19.99757813 -13.6953125 20.25390625 C-12.80585937 20.50011719 -11.91640625 20.74632812 -11 21 C-4.22902016 22.97937589 1.90308455 24.85462683 6 31 C6.81583119 36.56248536 6.26381982 41.32185826 3 46 C-4.30861512 51.75359062 -12.06459225 51.73188827 -21.02490234 51.23974609 C-25.48973326 50.69778516 -29.51491532 48.80545366 -33 46 C-33.495 44.515 -33.495 44.515 -34 43 C-32.68 41.68 -31.36 40.36 -30 39 C-29.40574219 39.3609375 -28.81148437 39.721875 -28.19921875 40.09375 C-21.67569334 43.74611259 -16.44797084 45.03898026 -9 44 C-5.37262429 43.19179214 -5.37262429 43.19179214 -3 41 C-2.2308131 37.86831049 -2 35.2041293 -2 32 C-7.69577181 30.01351168 -13.48488122 28.61239662 -19.34375 27.1953125 C-24.05776386 25.65419259 -27.6361141 23.59120022 -30.875 19.8125 C-32.4829941 15.79251474 -32.66380406 12.26946703 -32 8 C-30.00068713 3.76145672 -27.46856899 0.86951844 -23.25 -1.3125 C-15.81668635 -3.58379028 -7.24648954 -2.45863038 0 0 Z " fill="#15607E" transform="translate(657,703)"/>
<path d="M0 0 C0.69480469 -0.03738281 1.38960937 -0.07476562 2.10546875 -0.11328125 C5.88412168 -0.17732621 8.57687463 0.27554926 11.609375 2.47265625 C14.68365987 6.01954081 14.77963956 7.57344732 14.5 12.1875 C14.41878906 13.92966797 14.41878906 13.92966797 14.3359375 15.70703125 C14.26632812 16.58746094 14.19671875 17.46789062 14.125 18.375 C11.815 18.375 9.505 18.375 7.125 18.375 C6.89713542 16.32421875 6.66927083 14.2734375 6.44140625 12.22265625 C6.30613386 10.36359771 6.30613386 10.36359771 5.125 9.375 C-5.75241323 9.4302153 -16.66580781 10.78002551 -27.48828125 11.78515625 C-28.55032084 11.88360903 -28.55032084 11.88360903 -29.63381577 11.98405075 C-36.31477128 12.6040519 -42.99544316 13.2269264 -49.67456055 13.86645508 C-66.08627438 15.43461123 -82.36541516 16.90936027 -98.875 16.375 C-99.205 15.385 -99.535 14.395 -99.875 13.375 C-94.58904493 11.96509303 -89.42304328 10.9402367 -83.98046875 10.33984375 C-83.26643387 10.25626114 -82.55239899 10.17267853 -81.81672668 10.08656311 C-79.56585685 9.82359771 -77.31428742 9.56747861 -75.0625 9.3125 C-72.79296035 9.05321346 -70.52363602 8.79237222 -68.25471497 8.52772522 C-66.85054358 8.36414299 -65.446 8.20371632 -64.0410614 8.04685974 C-61.16449711 7.71347636 -58.63353515 7.29451172 -55.875 6.375 C-54.44069864 6.1579182 -53.00084501 5.97634792 -51.55883789 5.81835938 C-50.69106216 5.72155884 -49.82328644 5.6247583 -48.92921448 5.52502441 C-47.99480026 5.42395386 -47.06038605 5.3228833 -46.09765625 5.21875 C-44.65331459 5.05795959 -44.65331459 5.05795959 -43.17979431 4.8939209 C-40.09936382 4.55117776 -37.01849126 4.21266262 -33.9375 3.875 C-30.86010178 3.5371518 -27.78283071 3.19831655 -24.70591736 2.8560791 C-22.79081165 2.64309281 -20.87542264 2.43263538 -18.95973206 2.22497559 C-18.08880417 2.12817505 -17.21787628 2.03137451 -16.32055664 1.93164062 C-15.55683243 1.84805298 -14.79310822 1.76446533 -14.00624084 1.67834473 C-11.87430818 1.41332691 -11.87430818 1.41332691 -9.82713318 0.8572998 C-6.59086106 0.05773683 -3.31499729 0.0669082 0 0 Z " fill="#2A8BAA" transform="translate(555.875,493.625)"/>
<path d="M0 0 C2.88707696 4.51105775 2.89858116 8.86044036 3 14.125 C0.69 14.125 -1.62 14.125 -4 14.125 C-4.99 10.66 -4.99 10.66 -6 7.125 C-12.72332946 7.28790005 -18.86384423 8.51894141 -25.28125 10.39453125 C-34.51266233 13.02342192 -43.79554746 15.37209453 -53.125 17.625 C-53.91873016 17.8172113 -54.71246033 18.00942261 -55.53024292 18.2074585 C-65.68397357 20.66191585 -75.84718997 23.06363834 -86.0625 25.25 C-87.51390381 25.56807617 -87.51390381 25.56807617 -88.99462891 25.89257812 C-89.87425293 26.07498047 -90.75387695 26.25738281 -91.66015625 26.4453125 C-92.40918213 26.60273926 -93.15820801 26.76016602 -93.92993164 26.92236328 C-96.21213231 27.1457654 -97.81398273 26.76471163 -100 26.125 C-100.66 26.125 -101.32 26.125 -102 26.125 C-103.80693756 27.91112311 -103.80693756 27.91112311 -105.625 30.125 C-106.57246094 31.23875 -106.57246094 31.23875 -107.5390625 32.375 C-108.02117187 32.9525 -108.50328125 33.53 -109 34.125 C-109.33 33.465 -109.66 32.805 -110 32.125 C-106.48588112 25.94015076 -102.16676749 23.22729342 -95.46850586 20.89575195 C-94.22979736 20.55503662 -92.99108887 20.21432129 -91.71484375 19.86328125 C-91.02932434 19.67140732 -90.34380493 19.47953339 -89.63751221 19.28184509 C-88.16900683 18.87177722 -86.69933176 18.46587871 -85.22860718 18.06384277 C-81.29830969 16.98937823 -77.37642598 15.88483745 -73.453125 14.78515625 C-72.6571843 14.5630246 -71.86124359 14.34089294 -71.04118347 14.11203003 C-63.3908364 11.97114763 -55.78842295 9.68408476 -48.1875 7.375 C-43.45990863 5.95304377 -38.73017951 4.53831865 -34 3.125 C-32.37578125 2.63628418 -32.37578125 2.63628418 -30.71875 2.13769531 C-27.71327055 1.24032908 -24.70203426 0.36638494 -21.6875 -0.5 C-20.82858154 -0.76006836 -19.96966309 -1.02013672 -19.0847168 -1.28808594 C-12.38666657 -3.17184994 -6.08689717 -3.80431073 0 0 Z " fill="#3C9BBC" transform="translate(554,473.875)"/>
<path d="M0 0 C3.65758347 3.07569519 6.22775149 5.74575447 7.75 10.3125 C8.31320317 16.84565676 7.25985383 21.71213761 3.75 27.3125 C0.14380639 30.91869361 -2.80625721 31.59113838 -7.75 31.8125 C-12.68370215 31.59828227 -15.61420505 30.85961702 -19.25 27.3125 C-22.84315255 22.42401032 -23.89910177 17.65944122 -23.640625 11.640625 C-22.77282832 6.46855677 -19.1525243 2.60525488 -15.25 -0.6875 C-10.22770158 -2.83991361 -4.71826112 -2.44986635 0 0 Z " fill="#F5F8F8" transform="translate(470.25,712.6875)"/>
<path d="M0 0 C0.33 0 0.66 0 1 0 C1 19.8 1 39.6 1 60 C-6.65729533 63.06291813 -12.97278295 64.31882851 -21.125 64.1875 C-21.9715918 64.18105469 -22.81818359 64.17460937 -23.69042969 64.16796875 C-33.80228375 64.04991719 -43.90347124 63.54450585 -54 63 C-52 60 -52 60 -48.83203125 59.19140625 C-47.49393003 58.97092174 -46.15388634 58.7620269 -44.8125 58.5625 C-39.13367922 57.62182065 -33.66655495 56.4397408 -28.125 54.875 C-22.40262016 53.28511292 -16.93092912 52.27910255 -11 52 C-11.05671875 50.91332031 -11.1134375 49.82664062 -11.171875 48.70703125 C-11.16698232 43.1354962 -9.69217899 38.03538341 -8.25 32.6875 C-5.99262382 24.03945778 -3.93851797 15.39435109 -2.20605469 6.62573242 C-1.09732781 1.09732781 -1.09732781 1.09732781 0 0 Z " fill="#47A8CA" transform="translate(512,411)"/>
<path d="M0 0 C0 3.63 0 7.26 0 11 C-1.546875 11.391875 -3.09375 11.78375 -4.6875 12.1875 C-10.01723074 13.78566537 -13.08681421 15.97255984 -16.09912109 20.73925781 C-17.31368482 23.78718739 -17.32783613 26.45777303 -17.4140625 29.734375 C-17.47207031 31.67763672 -17.47207031 31.67763672 -17.53125 33.66015625 C-17.56270267 35.02343284 -17.59395007 36.38671418 -17.625 37.75 C-17.66320469 39.12893028 -17.70225787 40.50783734 -17.7421875 41.88671875 C-17.83648004 45.25767718 -17.9220822 48.62862978 -18 52 C-21.63 52 -25.26 52 -29 52 C-29 35.17 -29 18.34 -29 1 C-25.04 1 -21.08 1 -17 1 C-16.67 3.31 -16.34 5.62 -16 8 C-15.44570313 7.50628906 -14.89140625 7.01257813 -14.3203125 6.50390625 C-13.59585937 5.86324219 -12.87140625 5.22257813 -12.125 4.5625 C-11.40570313 3.92441406 -10.68640625 3.28632812 -9.9453125 2.62890625 C-6.56674457 -0.20013557 -4.33703265 -0.09428332 0 0 Z " fill="#0C5676" transform="translate(398,701)"/>
<path d="M0 0 C5.18172492 4.07947203 8.33571135 8.28849713 10.78125 14.40234375 C10.78125 18.36234375 10.78125 22.32234375 10.78125 26.40234375 C-2.41875 26.40234375 -15.61875 26.40234375 -29.21875 26.40234375 C-29.21875 25.08234375 -29.21875 23.76234375 -29.21875 22.40234375 C-18.32875 22.40234375 -7.43875 22.40234375 3.78125 22.40234375 C1.99938028 12.52919381 1.99938028 12.52919381 -4.34375 6.08984375 C-9.90154849 3.20541669 -15.10374543 3.80309246 -20.96875 5.46484375 C-24.97494622 7.85315304 -26.84129799 10.4844453 -29.21875 14.40234375 C-29.87875 15.39234375 -30.53875 16.38234375 -31.21875 17.40234375 C-32.53875 17.40234375 -33.85875 17.40234375 -35.21875 17.40234375 C-35.87875 16.74234375 -36.53875 16.08234375 -37.21875 15.40234375 C-36.78717462 9.58087134 -33.21435877 6.3160753 -29.21875 2.40234375 C-21.40294269 -4.04938398 -8.82885397 -5.25616094 0 0 Z " fill="#125C7C" transform="translate(711.21875,703.59765625)"/>
<path d="M0 0 C3.63 0 7.26 0 11 0 C11 16.83 11 33.66 11 51 C7.37 51 3.74 51 0 51 C0 34.17 0 17.34 0 0 Z " fill="#085373" transform="translate(409,702)"/>
<path d="M0 0 C3.95962997 2.79782238 5.80812198 5.4739772 7.6875 9.9375 C7.6875 11.9175 7.6875 13.8975 7.6875 15.9375 C-3.8625 15.9375 -15.4125 15.9375 -27.3125 15.9375 C-26.28798439 8.76589072 -25.23299416 5.86910137 -20.3125 0.9375 C-13.75964866 -3.01893854 -6.75332121 -3.80345042 0 0 Z " fill="#F7F9F8" transform="translate(707.3125,709.0625)"/>
<path d="M0 0 C0.33 0 0.66 0 1 0 C1.16081055 0.68924561 1.32162109 1.37849121 1.48730469 2.08862305 C5.70719931 20.19139393 5.70719931 20.19139393 11 38 C11.64549805 37.61666504 12.29099609 37.23333008 12.95605469 36.83837891 C15.88653008 35.09916653 18.81824957 33.36206213 21.75 31.625 C22.76578125 31.02171875 23.7815625 30.4184375 24.828125 29.796875 C26.29765625 28.92675781 26.29765625 28.92675781 27.796875 28.0390625 C29.14797363 27.23782959 29.14797363 27.23782959 30.52636719 26.42041016 C32.6541373 25.19860138 34.791996 24.06795295 37 23 C33.34616989 27.47594188 29.61061902 31.30529419 25.21484375 35.04296875 C20.94177872 38.81863996 17.00079881 42.9404619 13 47 C4.63019694 55.45660102 4.63019694 55.45660102 0 57 C0 38.19 0 19.38 0 0 Z " fill="#D5EBF2" transform="translate(513,414)"/>
<path d="M0 0 C3.02086561 1.3385602 4.9629395 2.76851864 7.1640625 5.22265625 C7.72867188 5.84333984 8.29328125 6.46402344 8.875 7.10351562 C9.4525 7.74998047 10.03 8.39644531 10.625 9.0625 C11.78126819 10.34738392 12.94000832 11.63004895 14.1015625 12.91015625 C14.86460693 13.76299194 14.86460693 13.76299194 15.64306641 14.63305664 C16.97542918 16.12092786 16.97542918 16.12092786 19 17 C19 17.66 19 18.32 19 19 C13.52097626 19.92417268 8.23881057 20.15602219 2.6875 20.125 C1.8524292 20.12306641 1.0173584 20.12113281 0.15698242 20.11914062 C-5.61951154 20.078663 -11.26742543 19.75181306 -17 19 C-15.60652624 15.84795019 -13.97514921 13.73828227 -11.5234375 11.328125 C-10.51796875 10.33232422 -10.51796875 10.33232422 -9.4921875 9.31640625 C-8.79351562 8.63449219 -8.09484375 7.95257812 -7.375 7.25 C-6.66859375 6.55261719 -5.9621875 5.85523438 -5.234375 5.13671875 C-3.49401297 3.41987512 -1.74915019 1.70788168 0 0 Z " fill="#F2F7F6" transform="translate(511,589)"/>
<path d="M0 0 C2.31 0 4.62 0 7 0 C7 17.16 7 34.32 7 52 C4.69 52 2.38 52 0 52 C0 34.84 0 17.68 0 0 Z " fill="#0C5575" transform="translate(603,701)"/>
<path d="M0 0 C0.66 1.32 1.32 2.64 2 4 C2.66 4 3.32 4 4 4 C5.625 5.375 5.625 5.375 7 7 C7 7.66 7 8.32 7 9 C1.13016115 10.69142281 -4.0338698 11.28562534 -10.125 11.1875 C-11.3948877 11.17783203 -11.3948877 11.17783203 -12.69042969 11.16796875 C-22.80228375 11.04991719 -32.90347124 10.54450585 -43 10 C-41 7 -41 7 -37.83203125 6.19140625 C-36.49395713 5.97075739 -35.15390919 5.76187319 -33.8125 5.5625 C-28.11765299 4.62497307 -22.67071855 3.41798835 -17.125 1.8125 C-11.26550856 0.17830462 -6.06019282 -0.51333398 0 0 Z " fill="#369BBE" transform="translate(501,464)"/>
<path d="M0 0 C4.98592875 4.17777765 9.66704284 8.53127277 14.24609375 13.1484375 C14.90207047 13.80582916 15.55804718 14.46322083 16.23390198 15.14053345 C18.30415268 17.21632862 20.37087651 19.29559427 22.4375 21.375 C23.85067862 22.7932008 25.26408794 24.21117176 26.67773438 25.62890625 C30.12116065 29.08328777 33.56143099 32.5407837 37 36 C36.505 36.99 36.505 36.99 36 38 C31.81576108 34.49102731 27.80411834 30.91939465 24 27 C23.01 27.99 22.02 28.98 21 30 C17.13671373 28.4152642 14.71123077 25.94043113 11.796875 22.9921875 C11.3142218 22.50670441 10.8315686 22.02122131 10.33428955 21.52102661 C8.80141438 19.97700134 7.27565996 18.42615176 5.75 16.875 C4.70879639 15.82375991 3.66713459 14.77297343 2.625 13.72265625 C0.07800536 11.15366996 -2.46265177 8.57851839 -5 6 C-3.35 4.02 -1.7 2.04 0 0 Z " fill="#0B6582" transform="translate(522,563)"/>
<path d="M0 0 C0.33 0.99 0.66 1.98 1 3 C2.32 2.67 3.64 2.34 5 2 C5 3.65 5 5.3 5 7 C16.55 7 28.1 7 40 7 C40 7.33 40 7.66 40 8 C24.16 8.495 24.16 8.495 8 9 C8 9.66 8 10.32 8 11 C27.305 11.495 27.305 11.495 47 12 C47 9.03 47 6.06 47 3 C47.33 3 47.66 3 48 3 C48 6.3 48 9.6 48 13 C46.06966919 12.97643433 46.06966919 12.97643433 44.1003418 12.95239258 C39.33136236 12.89814225 34.56241026 12.8636677 29.79321289 12.83520508 C27.72806209 12.82010729 25.6629434 12.79962726 23.59790039 12.77368164 C20.63159261 12.73734205 17.66570829 12.7202837 14.69921875 12.70703125 C13.31158577 12.68380547 13.31158577 12.68380547 11.8959198 12.66011047 C11.03525406 12.65988388 10.17458832 12.65965729 9.2878418 12.65942383 C8.15199898 12.64943108 8.15199898 12.64943108 6.99320984 12.63923645 C4.41073023 13.10665563 3.55694189 13.91282919 2 16 C1.26958147 19.61023099 1.26958147 19.61023099 1 23 C-3.75268523 17.42076082 -3.40512407 11.03009408 -3 4 C-2.67 3.01 -2.34 2.02 -2 1 C-1.34 0.67 -0.68 0.34 0 0 Z " fill="#2F6F85" transform="translate(675,718)"/>
<path d="M0 0 C1.34167565 0.13418218 2.6874071 0.23152957 4.03417969 0.29711914 C5.20494049 0.3570681 5.20494049 0.3570681 6.39935303 0.41822815 C7.23178528 0.45681442 8.06421753 0.4954007 8.921875 0.53515625 C9.78186096 0.57813339 10.64184692 0.62111053 11.52789307 0.66539001 C14.26842665 0.80148913 17.00919155 0.93206538 19.75 1.0625 C21.61069502 1.15393266 23.47137238 1.24572531 25.33203125 1.33789062 C29.8878267 1.56276805 34.4438374 1.78269344 39 2 C35.83025237 4.11316509 32.87452851 5.34355627 29.3125 6.6875 C28.13300781 7.14511719 26.95351563 7.60273438 25.73828125 8.07421875 C17.70930286 10.06258644 9.78667195 7.03765996 2 4.9375 C0.93910156 4.65583984 -0.12179687 4.37417969 -1.21484375 4.08398438 C-3.81117401 3.39396867 -6.40613311 2.69920797 -9 2 C-8 0 -8 0 -6.1875 -0.6875 C-3.76114241 -1.03412251 -2.35639112 -0.59939794 0 0 Z " fill="#C3E3ED" transform="translate(459,473)"/>
<path d="M0 0 C2.5 1.5625 2.5 1.5625 4 4 C4 7.77684879 3.78395245 10.03513544 1.375 13 C-2.11581787 14.46981805 -4.39148956 13.98413921 -8 13 C-10 11.3125 -10 11.3125 -11 9 C-10.87304813 5.88967921 -10.47953174 3.79921957 -8.875 1.125 C-5.83167192 -0.70099685 -3.45750445 -0.42460581 0 0 Z " fill="#155B7C" transform="translate(418,680)"/>
<path d="M0 0 C0.33 0 0.66 0 1 0 C1 2.64 1 5.28 1 8 C-12.2 8 -25.4 8 -39 8 C-39 6.68 -39 5.36 -39 4 C-28.11 4 -17.22 4 -6 4 C-6.33 4.99 -6.66 5.98 -7 7 C-5.02 6.67 -3.04 6.34 -1 6 C-0.67 4.02 -0.34 2.04 0 0 Z " fill="#075978" transform="translate(721,722)"/>
<path d="M0 0 C2.9375 1.125 2.9375 1.125 3.9375 2.125 C4.55968434 7.80841464 4.15085824 12.24545601 0.9375 17.125 C-2.0625 19.125 -2.0625 19.125 -4.25 18.75 C-5.1471875 18.440625 -5.1471875 18.440625 -6.0625 18.125 C-6.0625 16.125 -6.0625 16.125 -5.625 14.4375 C-4.41376615 9.45798305 -3.69845801 5.12648731 -5.0625 0.125 C-3.0625 -0.875 -3.0625 -0.875 0 0 Z " fill="#125D7E" transform="translate(659.0625,731.875)"/>
<path d="M0 0 C3.71208015 1.63142376 5.53085977 3.80131322 8.08984375 6.9296875 C11.20456466 10.30556088 14.81399682 13.04801149 18.4140625 15.88671875 C20.76694268 17.80954077 22.89565747 19.81168136 25 22 C24.67 22.99 24.34 23.98 24 25 C21.04427645 25.67735331 19.8171488 25.93190854 17 25 C13.80607864 21.70263179 11.48023292 17.84754081 9 14 C8.16976668 12.79942073 7.33368477 11.60286757 6.4921875 10.41015625 C0 1.20344332 0 1.20344332 0 0 Z " fill="#4DACCC" transform="translate(473,437)"/>
<path d="M0 0 C0.66 0.33 1.32 0.66 2 1 C1.52691406 1.44279297 1.05382812 1.88558594 0.56640625 2.34179688 C-1.62369505 4.39314907 -3.81185259 6.44656383 -6 8.5 C-7.11568359 9.54414063 -7.11568359 9.54414063 -8.25390625 10.609375 C-12.75349213 14.83507304 -17.15751464 19.13066728 -21.46875 23.54882812 C-23 25 -23 25 -24 25 C-24.69517687 21.46995757 -24.89225505 18.50739682 -24 15 C-20.82572525 11.85473498 -17.08732644 10.00816792 -13.125 8 C-11.08514134 6.89730487 -9.0460409 5.7932056 -7.0078125 4.6875 C-5.64100342 3.98173828 -5.64100342 3.98173828 -4.24658203 3.26171875 C-1.89264011 2.07282411 -1.89264011 2.07282411 0 0 Z " fill="#50B0D4" transform="translate(548,437)"/>
<path d="M0 0 C0 5.41880836 -4.04199733 9.62679605 -7 14 C-7.57492187 14.91007812 -8.14984375 15.82015625 -8.7421875 16.7578125 C-10.36635884 19.14541921 -11.78874116 21.14010644 -14 23 C-17.14679975 23.47091193 -18.87743546 22.93129118 -22 22 C-15.42361593 14.00169505 -8.20811759 6.33791358 0 0 Z " fill="#CDEAF3" transform="translate(547,440)"/>
<path d="M0 0 C4.6323184 1.5558261 8.16896731 4.07618701 12.0625 6.9375 C12.67416016 7.38029297 13.28582031 7.82308594 13.91601562 8.27929688 C15.09636293 9.13552719 16.27221606 9.99799682 17.44287109 10.86743164 C18.71293465 11.79120474 20.02879385 12.65174005 21.35546875 13.4921875 C23.59852977 15.54877076 23.78709098 17.21716713 24.25 20.1875 C24.39953125 21.08855469 24.5490625 21.98960937 24.703125 22.91796875 C24.80109375 23.60503906 24.8990625 24.29210937 25 25 C23.125 24.8125 23.125 24.8125 21 24 C20.31798082 22.33955667 19.65393752 20.67170211 19 19 C16.6396609 16.45586794 16.6396609 16.45586794 13.8125 14.0625 C12.83152344 13.19625 11.85054688 12.33 10.83984375 11.4375 C8.53414917 9.45847192 6.21113504 7.50523185 3.875 5.5625 C1 3 1 3 0 0 Z " fill="#B6DDEA" transform="translate(477,439)"/>
<path d="M0 0 C3.0625 0.3125 3.0625 0.3125 4.9375 1.4375 C6.60913625 4.22356042 6.52626624 6.13238862 6.0625 9.3125 C4.375 11.25 4.375 11.25 2.0625 12.3125 C-1.30786311 12.07175978 -2.52548021 11.72451979 -4.9375 9.3125 C-5.1875 5.8125 -5.1875 5.8125 -4.9375 2.3125 C-2.9375 0.3125 -2.9375 0.3125 0 0 Z " fill="#207A9A" transform="translate(561.9375,550.6875)"/>
<path d="M0 0 C3.08555832 1.54277916 3.28513794 4.13587801 4.35742188 7.29101562 C4.63134766 8.12310547 4.90527344 8.95519531 5.1875 9.8125 C5.47302734 10.63298828 5.75855469 11.45347656 6.05273438 12.29882812 C6.45008789 13.49088867 6.45008789 13.49088867 6.85546875 14.70703125 C7.09934326 15.4338208 7.34321777 16.16061035 7.59448242 16.90942383 C8.05239068 19.27009113 7.74682606 20.7371904 7 23 C6.34 21.35 5.68 19.7 5 18 C4.01 18 3.02 18 2 18 C1.34 19.32 0.68 20.64 0 22 C-0.99 17.71 -1.98 13.42 -3 9 C-2.01 8.67 -1.02 8.34 0 8 C0 5.36 0 2.72 0 0 Z " fill="#1F6682" transform="translate(555,714)"/>
<path d="M0 0 C1.7325 0.1546875 1.7325 0.1546875 3.5 0.3125 C5.5 3.3125 5.5 3.3125 5.25 5.875 C4.5 8.3125 4.5 8.3125 2.5 10.3125 C-0.34602594 10.67737512 -1.8864306 10.71449375 -4.3125 9.125 C-5.90199375 6.6989306 -5.86487512 5.15852594 -5.5 2.3125 C-3.5 0.3125 -3.5 0.3125 0 0 Z " fill="#1D6484" transform="translate(606.5,680.6875)"/>
<path d="M0 0 C4.91935902 4.11619836 9.52647956 8.40410362 14 13 C13.67 13.99 13.34 14.98 13 16 C8.08064098 11.88380164 3.47352044 7.59589638 -1 3 C-0.67 2.01 -0.34 1.02 0 0 Z " fill="#20738D" transform="translate(544,568)"/>
<path d="M0 0 C1.13665504 3.40996511 0.91583208 3.86305848 -0.43359375 7.01171875 C-0.75263672 7.76904297 -1.07167969 8.52636719 -1.40039062 9.30664062 C-1.74263672 10.09232422 -2.08488281 10.87800781 -2.4375 11.6875 C-2.77587891 12.48478516 -3.11425781 13.28207031 -3.46289062 14.10351562 C-4.3000701 16.07265607 -5.1489353 18.03682084 -6 20 C-5.34 20.33 -4.68 20.66 -4 21 C-5.8125 23.5 -5.8125 23.5 -8 26 C-8.99 26 -9.98 26 -11 26 C-10.70939697 25.27458008 -10.41879395 24.54916016 -10.11938477 23.80175781 C-9.10410449 21.26056774 -8.09574189 18.71678966 -7.08984375 16.171875 C-6.3724649 14.36455592 -5.65501502 12.55726503 -4.9375 10.75 C-4.57333984 9.82703125 -4.20917969 8.9040625 -3.83398438 7.953125 C-3.31094727 6.63828125 -3.31094727 6.63828125 -2.77734375 5.296875 C-2.46015381 4.49604492 -2.14296387 3.69521484 -1.81616211 2.87011719 C-1 1 -1 1 0 0 Z " fill="#3994B0" transform="translate(644,513)"/>
<path d="M0 0 C0.66 0.33 1.32 0.66 2 1 C0.38989473 5.07376031 -2.53822271 7.76507069 -5.625 10.75 C-6.140625 11.25660156 -6.65625 11.76320313 -7.1875 12.28515625 C-8.45383339 13.52803902 -9.7263144 14.76465276 -11 16 C-11.66 15.01 -12.32 14.02 -13 13 C-8.71 8.71 -4.42 4.42 0 0 Z " fill="#2B7791" transform="translate(475,572)"/>
<path d="M0 0 C0.33 1.32 0.66 2.64 1 4 C-1.64 4.33 -4.28 4.66 -7 5 C-7 4.34 -7 3.68 -7 3 C-8.1055189 3.93590504 -9.20935453 4.87379858 -10.3125 5.8125 C-10.92738281 6.33457031 -11.54226563 6.85664063 -12.17578125 7.39453125 C-13.85424679 8.87172469 -15.43882034 10.40039131 -17 12 C-15.51771331 6.07085322 -13.05670644 3.97206867 -8.0625 0.75 C-5.32037505 -0.24713635 -2.89171193 -0.13144145 0 0 Z " fill="#2B8DAE" transform="translate(461,496)"/>
<path d="M0 0 C0.94875 0.350625 1.8975 0.70125 2.875 1.0625 C2.25848417 2.7115302 1.63152258 4.35665841 1 6 C0.65195312 6.91652344 0.30390625 7.83304688 -0.0546875 8.77734375 C-1.125 11.0625 -1.125 11.0625 -3.125 12.0625 C-3.785 8.1025 -4.445 4.1425 -5.125 0.0625 C-3.125 -0.9375 -3.125 -0.9375 0 0 Z " fill="#0C5774" transform="translate(659.125,731.9375)"/>
<path d="M0 0 C1.32 0.66 2.64 1.32 4 2 C4 6 4 6 2.5390625 7.484375 C1.90742187 7.90203125 1.27578125 8.3196875 0.625 8.75 C-0.00148438 9.17796875 -0.62796875 9.6059375 -1.2734375 10.046875 C-3 11 -3 11 -5 11 C-5 8 -5 8 -3.5 6.3125 C-3.005 5.879375 -2.51 5.44625 -2 5 C-2.33 4.01 -2.66 3.02 -3 2 C-2.01 1.34 -1.02 0.68 0 0 Z " fill="#1C698A" transform="translate(715,741)"/>
<path d="M0 0 C0.33 0 0.66 0 1 0 C1 5.61 1 11.22 1 17 C0.34 16.01 -0.32 15.02 -1 14 C-1.66 15.98 -2.32 17.96 -3 20 C-3.33 20 -3.66 20 -4 20 C-3.6143354 12.88515313 -2.60900601 6.64558134 0 0 Z " fill="#3597BA" transform="translate(349,426)"/>
<path d="M0 0 C6.39375008 3.74268298 10.90566395 8.85849592 15 15 C12 15 12 15 10.46606445 13.80664062 C9.937146 13.26201172 9.40822754 12.71738281 8.86328125 12.15625 C8.28642578 11.56972656 7.70957031 10.98320313 7.11523438 10.37890625 C6.52033203 9.75886719 5.92542969 9.13882813 5.3125 8.5 C4.70599609 7.87996094 4.09949219 7.25992188 3.47460938 6.62109375 C1.97626257 5.08735293 0.48723507 3.54451802 -1 2 C-0.67 1.34 -0.34 0.68 0 0 Z " fill="#136D86" transform="translate(518,567)"/>
<path d="M0 0 C2.42493378 0.60133349 4.66383302 0.74920419 7.15917969 0.85571289 C8.56103516 0.91855469 8.56103516 0.91855469 9.99121094 0.98266602 C10.95929688 1.02198242 11.92738281 1.06129883 12.92480469 1.10180664 C13.90835937 1.14499023 14.89191406 1.18817383 15.90527344 1.23266602 C18.32831744 1.33852716 20.75146009 1.44060835 23.17480469 1.53930664 C23.17480469 1.86930664 23.17480469 2.19930664 23.17480469 2.53930664 C13.27480469 2.53930664 3.37480469 2.53930664 -6.82519531 2.53930664 C-5.82519531 0.53930664 -5.82519531 0.53930664 -4.01269531 -0.14819336 C-1.82519531 -0.46069336 -1.82519531 -0.46069336 0 0 Z " fill="#A1D4E4" transform="translate(456.8251953125,472.460693359375)"/>
<path d="M0 0 C5.67355671 0.61726196 11.33861055 1.27945952 17 2 C16.34 3.32 15.68 4.64 15 6 C12.8727242 5.3827904 10.74823143 4.75598201 8.625 4.125 C6.84996094 3.60292969 6.84996094 3.60292969 5.0390625 3.0703125 C2 2 2 2 0 0 Z " fill="#8CD2EF" transform="translate(550,337)"/>
<path d="M0 0 C0.33 0 0.66 0 1 0 C1.33 2.97 1.66 5.94 2 9 C1.01 9.495 1.01 9.495 0 10 C0.33 11.65 0.66 13.3 1 15 C-0.32 14.34 -1.64 13.68 -3 13 C-3 10.36 -3 7.72 -3 5 C-2.01 4.67 -1.02 4.34 0 4 C0 2.68 0 1.36 0 0 Z " fill="#0E5A75" transform="translate(679,729)"/>
<path d="M0 0 C-3.01490557 2.00993705 -5.2149927 2.72623341 -8.6875 3.625 C-10.17830078 4.01558594 -10.17830078 4.01558594 -11.69921875 4.4140625 C-12.45847656 4.60742188 -13.21773438 4.80078125 -14 5 C-13.67 3.68 -13.34 2.36 -13 1 C-8.60563789 0.14256349 -4.47427924 -0.08948558 0 0 Z " fill="#8DD3F1" transform="translate(476,337)"/>
<path d="M0 0 C5.625 -0.25 5.625 -0.25 9 2 C9 2.66 9 3.32 9 4 C9.66 4.33 10.32 4.66 11 5 C7.0507432 4.44894091 3.65079826 3.61064629 0 2 C0 1.34 0 0.68 0 0 Z " fill="#3A96B3" transform="translate(590,473)"/>
<path d="M0 0 C3.40858586 3.40858586 3.93008394 8.32201465 4.125 13 C4.08375 13.66 4.0425 14.32 4 15 C3.71125 14.360625 3.4225 13.72125 3.125 13.0625 C2.17176549 10.84793921 2.17176549 10.84793921 0 10 C0 6.7 0 3.4 0 0 Z " fill="#3697B8" transform="translate(675,427)"/>
<path d="M0 0 C0.66 0.33 1.32 0.66 2 1 C1.32902328 5.19360449 -0.8558394 8.40334352 -3 12 C-4.21386936 8.35839192 -3.6674695 7.66834531 -2.0625 4.3125 C-1.49208984 3.10013672 -1.49208984 3.10013672 -0.91015625 1.86328125 C-0.60980469 1.24839844 -0.30945313 0.63351562 0 0 Z " fill="#6CBDDF" transform="translate(512,363)"/>
<path d="M0 0 C0.99 0.33 1.98 0.66 3 1 C1.515 3.475 1.515 3.475 0 6 C-2.475 5.01 -2.475 5.01 -5 4 C-4.34 3.34 -3.68 2.68 -3 2 C-2.01 2 -1.02 2 0 2 C0 1.34 0 0.68 0 0 Z " fill="#216783" transform="translate(659,706)"/>
<path d="M0 0 C-1.04874998 2.62187494 -1.64931313 3.79371361 -4.125 5.25 C-4.74375 5.4975 -5.3625 5.745 -6 6 C-6 3 -6 3 -4.6875 1.3125 C-3 0 -3 0 0 0 Z " fill="#166783" transform="translate(461,589)"/>
<path d="M0 0 C0.66 0 1.32 0 2 0 C1.8125 2.3125 1.8125 2.3125 1 5 C-1.5625 6.8125 -1.5625 6.8125 -4 8 C-3.34 6.35 -2.68 4.7 -2 3 C-1.34 3 -0.68 3 0 3 C0 2.01 0 1.02 0 0 Z " fill="#1B6683" transform="translate(660,743)"/>
<path d="M0 0 C0.99 0.33 1.98 0.66 3 1 C1.02 3.31 -0.96 5.62 -3 8 C-3.33 6.68 -3.66 5.36 -4 4 C-2.0625 1.75 -2.0625 1.75 0 0 Z " fill="#075E7D" transform="translate(476,596)"/>
<path d="M0 0 C0.66 0.33 1.32 0.66 2 1 C0.1875 3.5 0.1875 3.5 -2 6 C-2.99 6 -3.98 6 -5 6 C-4.75 4.125 -4.75 4.125 -4 2 C-2.0625 0.6875 -2.0625 0.6875 0 0 Z " fill="#308BAA" transform="translate(638,533)"/>
<path d="M0 0 C1.32 0.66 2.64 1.32 4 2 C3.071875 2.4021875 3.071875 2.4021875 2.125 2.8125 C-0.2995233 3.95556848 -0.2995233 3.95556848 -2 7 C-2.33 6.01 -2.66 5.02 -3 4 C-1.5625 1.8125 -1.5625 1.8125 0 0 Z " fill="#1F6F8B" transform="translate(626,742)"/>
<path d="M0 0 C1.98 0 3.96 0 6 0 C5.01 0.495 5.01 0.495 4 1 C2.86649466 3.01669827 2.86649466 3.01669827 2 5 C1.34 4.67 0.68 4.34 0 4 C0 2.68 0 1.36 0 0 Z " fill="#075F83" transform="translate(625,745)"/>
<path d="M0 0 C0.33 0.99 0.66 1.98 1 3 C-0.98 3.99 -0.98 3.99 -3 5 C-3.66 4.01 -4.32 3.02 -5 2 C-3.35 1.34 -1.7 0.68 0 0 Z " fill="#0E5F82" transform="translate(636,582)"/>
<path d="M0 0 C-3.4352048 2.29013653 -4.985331 2.17842973 -9 2 C-8 0 -8 0 -6.1875 -0.6875 C-3.81180233 -1.02688538 -2.26664171 -0.72856341 0 0 Z " fill="#75BED6" transform="translate(459,473)"/>
<path d="M0 0 C0.33 0 0.66 0 1 0 C1.33 2.31 1.66 4.62 2 7 C0.68 7.33 -0.64 7.66 -2 8 C-1.125 2.25 -1.125 2.25 0 0 Z " fill="#51AED6" transform="translate(570,413)"/>
</svg>
